G04*
G04 #@! TF.GenerationSoftware,Altium Limited,Altium Designer,18.1.6 (161)*
G04*
G04 Layer_Color=32896*
%FSLAX25Y25*%
%MOIN*%
G70*
G01*
G75*
%ADD11C,0.01000*%
%ADD60C,0.00200*%
D11*
X251000Y193000D02*
Y283000D01*
X173000Y193000D02*
Y283000D01*
Y193000D02*
X251000D01*
X173000Y283000D02*
X251000D01*
D60*
X203200Y56200D02*
X205000D01*
X266200Y56000D02*
X278000D01*
X250000D02*
X261800D01*
X233800D02*
X245400D01*
X203200D02*
X205000D01*
X278400Y55800D02*
X278600D01*
X266000D02*
X278200D01*
X265600D02*
X265800D01*
X262200D02*
X262400D01*
X249800D02*
X262000D01*
X233600D02*
X245600D01*
X203200D02*
X205000D01*
X278600Y55600D02*
X278800D01*
X265800D02*
X278400D01*
X265400D02*
X265600D01*
X262400D02*
X262600D01*
X249600D02*
X262200D01*
X233400D02*
X245800D01*
X203200D02*
X205000D01*
X265600Y55400D02*
X278600D01*
X265200D02*
X265400D01*
X262600D02*
X262800D01*
X249400D02*
X262400D01*
X233200D02*
X246000D01*
X203200D02*
X205000D01*
X279000Y55200D02*
X279200D01*
X265400D02*
X278800D01*
X265000D02*
X265200D01*
X262800D02*
X263000D01*
X249200D02*
X262600D01*
X233000D02*
X246200D01*
X203200D02*
X205000D01*
X279200Y55000D02*
X279400D01*
X265200D02*
X279000D01*
X264800D02*
X265000D01*
X263000D02*
X263200D01*
X249000D02*
X262800D01*
X232800D02*
X246400D01*
X203200D02*
X205000D01*
X277600Y54800D02*
X279200D01*
X265000D02*
X266600D01*
X261400D02*
X263000D01*
X248800D02*
X250400D01*
X232600D02*
X246600D01*
X203200D02*
X205000D01*
X277800Y54600D02*
X279400D01*
X264800D02*
X266400D01*
X261600D02*
X263200D01*
X248600D02*
X250200D01*
X232400D02*
X246800D01*
X203200D02*
X205000D01*
X278000Y54400D02*
X279600D01*
X264600D02*
X266200D01*
X261800D02*
X263200D01*
X248400D02*
X250000D01*
X232200D02*
X247000D01*
X203200D02*
X205000D01*
X278200Y54200D02*
X279600D01*
X264600D02*
X266000D01*
X262000D02*
X263400D01*
X248400D02*
X249800D01*
X232000D02*
X247000D01*
X203200D02*
X205000D01*
X278400Y54000D02*
X279600D01*
X264600D02*
X265800D01*
X262200D02*
X263400D01*
X248400D02*
X249600D01*
X232200D02*
X247000D01*
X203200D02*
X205000D01*
X278400Y53800D02*
X279600D01*
X264600D02*
X265800D01*
X262200D02*
X263400D01*
X248400D02*
X249600D01*
X232200D02*
X247000D01*
X203200D02*
X205000D01*
X278400Y53600D02*
X279600D01*
X264600D02*
X265800D01*
X262200D02*
X263400D01*
X248400D02*
X249600D01*
X232200D02*
X247000D01*
X203200D02*
X205000D01*
X278400Y53400D02*
X279600D01*
X264600D02*
X265800D01*
X262200D02*
X263400D01*
X248400D02*
X249600D01*
X232200D02*
X247000D01*
X203200D02*
X205000D01*
X278400Y53200D02*
X279600D01*
X264600D02*
X265800D01*
X262200D02*
X263400D01*
X248400D02*
X249600D01*
X232200D02*
X247000D01*
X203200D02*
X205000D01*
X278400Y53000D02*
X279600D01*
X264600D02*
X265800D01*
X262200D02*
X263400D01*
X248400D02*
X249600D01*
X232200D02*
X247000D01*
X203200D02*
X205000D01*
X278400Y52800D02*
X279600D01*
X264600D02*
X265800D01*
X262200D02*
X263400D01*
X248400D02*
X249600D01*
X232200D02*
X247000D01*
X203200D02*
X205000D01*
X278400Y52600D02*
X279600D01*
X264600D02*
X265800D01*
X262200D02*
X263400D01*
X248400D02*
X249600D01*
X232200D02*
X247000D01*
X203200D02*
X205000D01*
X278400Y52400D02*
X279600D01*
X264600D02*
X265800D01*
X262200D02*
X263400D01*
X248400D02*
X249600D01*
X232200D02*
X247000D01*
X203200D02*
X205000D01*
X278400Y52200D02*
X279600D01*
X264600D02*
X265800D01*
X262200D02*
X263400D01*
X248400D02*
X249600D01*
X232200D02*
X247000D01*
X203200D02*
X205000D01*
X278400Y52000D02*
X279600D01*
X264600D02*
X265800D01*
X262200D02*
X263400D01*
X248400D02*
X249600D01*
X232200D02*
X247000D01*
X222800D02*
X224800D01*
X211200D02*
X213400D01*
X203200D02*
X205000D01*
X194600D02*
X197000D01*
X278400Y51800D02*
X279600D01*
X264600D02*
X265800D01*
X262200D02*
X263400D01*
X248400D02*
X249600D01*
X232200D02*
X247000D01*
X221800D02*
X225800D01*
X210400D02*
X214200D01*
X203200D02*
X205000D01*
X193800D02*
X198000D01*
X182400D02*
X184000D01*
X278400Y51600D02*
X279600D01*
X264600D02*
X265800D01*
X262200D02*
X263400D01*
X248400D02*
X249600D01*
X232200D02*
X247000D01*
X221400D02*
X226400D01*
X209800D02*
X214600D01*
X203200D02*
X205000D01*
X193200D02*
X198600D01*
X187000D02*
X188600D01*
X182400D02*
X184600D01*
X278400Y51400D02*
X279600D01*
X264600D02*
X265800D01*
X262200D02*
X263400D01*
X248400D02*
X249600D01*
X232200D02*
X247000D01*
X221000D02*
X226800D01*
X209400D02*
X215000D01*
X203200D02*
X205000D01*
X192800D02*
X198800D01*
X187000D02*
X188600D01*
X182400D02*
X185000D01*
X278400Y51200D02*
X279600D01*
X264600D02*
X265800D01*
X262200D02*
X263400D01*
X248400D02*
X249600D01*
X232200D02*
X247000D01*
X220800D02*
X227000D01*
X209200D02*
X215400D01*
X203200D02*
X205000D01*
X192600D02*
X199200D01*
X187000D02*
X188600D01*
X182400D02*
X185400D01*
X278400Y51000D02*
X279600D01*
X264600D02*
X265800D01*
X262200D02*
X263400D01*
X248400D02*
X249600D01*
X232200D02*
X247000D01*
X220600D02*
X227400D01*
X208800D02*
X215600D01*
X203200D02*
X205000D01*
X192400D02*
X199400D01*
X187000D02*
X188600D01*
X182400D02*
X185600D01*
X278400Y50800D02*
X279600D01*
X264600D02*
X265800D01*
X262200D02*
X263400D01*
X248400D02*
X249600D01*
X232200D02*
X247000D01*
X220400D02*
X227600D01*
X208600D02*
X216000D01*
X203200D02*
X205000D01*
X192200D02*
X199600D01*
X187000D02*
X188600D01*
X182400D02*
X186000D01*
X278400Y50600D02*
X279600D01*
X264600D02*
X265800D01*
X262200D02*
X263400D01*
X248400D02*
X249600D01*
X232200D02*
X247000D01*
X224200D02*
X227800D01*
X220200D02*
X223800D01*
X212400D02*
X216200D01*
X208400D02*
X212000D01*
X203200D02*
X205000D01*
X196200D02*
X199800D01*
X192000D02*
X195800D01*
X187000D02*
X188600D01*
X182400D02*
X186200D01*
X278400Y50400D02*
X279600D01*
X264600D02*
X265800D01*
X262200D02*
X263400D01*
X248400D02*
X249600D01*
X232200D02*
X247000D01*
X225400D02*
X227800D01*
X220000D02*
X222600D01*
X213600D02*
X216400D01*
X208200D02*
X211000D01*
X203200D02*
X205000D01*
X197400D02*
X200000D01*
X191800D02*
X194400D01*
X187000D02*
X188600D01*
X186600D02*
X186800D01*
X182400D02*
X186400D01*
X278400Y50200D02*
X279600D01*
X264600D02*
X265800D01*
X262200D02*
X263400D01*
X248400D02*
X249600D01*
X232200D02*
X247000D01*
X225800D02*
X228000D01*
X219800D02*
X222200D01*
X214000D02*
X216600D01*
X208000D02*
X210400D01*
X203200D02*
X205000D01*
X198000D02*
X200200D01*
X191800D02*
X194000D01*
X187000D02*
X188600D01*
X182600D02*
X186400D01*
X278400Y50000D02*
X279600D01*
X264600D02*
X265800D01*
X262200D02*
X263400D01*
X248400D02*
X249600D01*
X232200D02*
X247000D01*
X226200D02*
X228200D01*
X222200D02*
X222400D01*
X219800D02*
X221800D01*
X214400D02*
X216600D01*
X207800D02*
X210200D01*
X203200D02*
X205000D01*
X198200D02*
X200200D01*
X194000D02*
X194200D01*
X191600D02*
X193600D01*
X187000D02*
X188600D01*
X184200D02*
X186600D01*
X278400Y49800D02*
X279600D01*
X264600D02*
X265800D01*
X262200D02*
X263400D01*
X248400D02*
X249600D01*
X232200D02*
X247000D01*
X226400D02*
X228200D01*
X225800D02*
X226000D01*
X219600D02*
X221600D01*
X214600D02*
X216800D01*
X210200D02*
X210400D01*
X207600D02*
X209800D01*
X203200D02*
X205000D01*
X198400D02*
X200400D01*
X198000D02*
X198200D01*
X191600D02*
X193400D01*
X187000D02*
X188600D01*
X184800D02*
X186800D01*
X278400Y49600D02*
X279600D01*
X264600D02*
X265800D01*
X262200D02*
X263400D01*
X248400D02*
X249600D01*
X232200D02*
X247000D01*
X226400D02*
X228200D01*
X226000D02*
X226200D01*
X219600D02*
X221400D01*
X214800D02*
X217000D01*
X214400D02*
X214600D01*
X207600D02*
X209600D01*
X203200D02*
X205000D01*
X198600D02*
X200400D01*
X198200D02*
X198400D01*
X191400D02*
X193400D01*
X187000D02*
X188600D01*
X185000D02*
X186800D01*
X184400D02*
X184600D01*
X278400Y49400D02*
X279600D01*
X264600D02*
X265800D01*
X262200D02*
X263400D01*
X248400D02*
X249600D01*
X232200D02*
X247000D01*
X226600D02*
X228400D01*
X226200D02*
X226400D01*
X219400D02*
X221400D01*
X215000D02*
X217200D01*
X214600D02*
X214800D01*
X207400D02*
X209400D01*
X203200D02*
X205000D01*
X198800D02*
X200600D01*
X198400D02*
X198600D01*
X191400D02*
X193200D01*
X185400D02*
X188600D01*
X184800D02*
X185000D01*
X278400Y49200D02*
X279600D01*
X264600D02*
X265800D01*
X262200D02*
X263400D01*
X248400D02*
X249600D01*
X232200D02*
X247000D01*
X226600D02*
X228400D01*
X219400D02*
X221200D01*
X215200D02*
X217200D01*
X214800D02*
X215000D01*
X207200D02*
X209200D01*
X203200D02*
X205000D01*
X198800D02*
X200600D01*
X191400D02*
X193200D01*
X191000D02*
X191200D01*
X185600D02*
X188600D01*
X278400Y49000D02*
X279600D01*
X264600D02*
X265800D01*
X262200D02*
X263400D01*
X248400D02*
X249600D01*
X232200D02*
X247000D01*
X226600D02*
X228400D01*
X219400D02*
X221200D01*
X215400D02*
X217400D01*
X215000D02*
X215200D01*
X207200D02*
X209200D01*
X203200D02*
X205000D01*
X199000D02*
X200600D01*
X191400D02*
X193200D01*
X185800D02*
X188600D01*
X185400D02*
X185600D01*
X278400Y48800D02*
X279600D01*
X264600D02*
X265800D01*
X262200D02*
X263400D01*
X248400D02*
X249600D01*
X232200D02*
X247000D01*
X226600D02*
X228400D01*
X219400D02*
X221000D01*
X215600D02*
X217400D01*
X209200D02*
X209400D01*
X207000D02*
X209000D01*
X203200D02*
X205000D01*
X199000D02*
X200800D01*
X191400D02*
X193000D01*
X186000D02*
X188600D01*
X185600D02*
X185800D01*
X278400Y48600D02*
X279600D01*
X264600D02*
X265800D01*
X262200D02*
X263400D01*
X248400D02*
X249600D01*
X232200D02*
X247000D01*
X226600D02*
X228400D01*
X219200D02*
X221000D01*
X215600D02*
X217600D01*
X207000D02*
X208800D01*
X203200D02*
X205000D01*
X199000D02*
X200800D01*
X191400D02*
X193000D01*
X186200D02*
X188600D01*
X185800D02*
X186000D01*
X278400Y48400D02*
X279600D01*
X264600D02*
X265800D01*
X262200D02*
X263400D01*
X248400D02*
X249600D01*
X232200D02*
X247000D01*
X226600D02*
X228400D01*
X221200D02*
X221400D01*
X219200D02*
X221000D01*
X215800D02*
X217600D01*
X207000D02*
X208800D01*
X203200D02*
X205000D01*
X199000D02*
X200800D01*
X191400D02*
X193000D01*
X186200D02*
X188600D01*
X278400Y48200D02*
X279600D01*
X264600D02*
X265800D01*
X262200D02*
X263400D01*
X248400D02*
X249600D01*
X232200D02*
X247000D01*
X226600D02*
X228400D01*
X226200D02*
X226400D01*
X219200D02*
X221000D01*
X215800D02*
X217600D01*
X206800D02*
X208600D01*
X203200D02*
X205000D01*
X199200D02*
X200800D01*
X191400D02*
X193000D01*
X186400D02*
X188600D01*
X278400Y48000D02*
X279600D01*
X264600D02*
X265800D01*
X262200D02*
X263400D01*
X248400D02*
X249600D01*
X232200D02*
X247000D01*
X226600D02*
X228400D01*
X216000D02*
X217800D01*
X208800D02*
X209000D01*
X206800D02*
X208600D01*
X203200D02*
X205000D01*
X199200D02*
X200800D01*
X191400D02*
X193000D01*
X186600D02*
X188600D01*
X278400Y47800D02*
X279600D01*
X264600D02*
X265800D01*
X262200D02*
X263400D01*
X248400D02*
X249600D01*
X232200D02*
X247000D01*
X226400D02*
X228400D01*
X216000D02*
X217800D01*
X206800D02*
X208600D01*
X203200D02*
X205000D01*
X191400D02*
X193000D01*
X186600D02*
X188600D01*
X186200D02*
X186400D01*
X278400Y47600D02*
X279600D01*
X264600D02*
X265800D01*
X262200D02*
X263400D01*
X248400D02*
X249600D01*
X232200D02*
X247000D01*
X226200D02*
X228200D01*
X225600D02*
X225800D01*
X216000D02*
X217800D01*
X206600D02*
X208400D01*
X203200D02*
X205000D01*
X191400D02*
X193200D01*
X186600D02*
X188600D01*
X278400Y47400D02*
X279600D01*
X264600D02*
X265800D01*
X262200D02*
X263400D01*
X248400D02*
X249600D01*
X232200D02*
X247000D01*
X225800D02*
X228200D01*
X216200D02*
X217800D01*
X206600D02*
X208400D01*
X203200D02*
X205000D01*
X191400D02*
X193200D01*
X186800D02*
X188600D01*
X278400Y47200D02*
X279600D01*
X264600D02*
X265800D01*
X262200D02*
X263400D01*
X248400D02*
X249600D01*
X232200D02*
X247000D01*
X225400D02*
X228000D01*
X216200D02*
X218000D01*
X206600D02*
X208400D01*
X206200D02*
X206400D01*
X203200D02*
X205000D01*
X191400D02*
X193400D01*
X186800D02*
X188600D01*
X278400Y47000D02*
X279600D01*
X264600D02*
X265800D01*
X262200D02*
X263400D01*
X248400D02*
X249600D01*
X232200D02*
X247000D01*
X224800D02*
X228000D01*
X216200D02*
X218000D01*
X206600D02*
X208400D01*
X203200D02*
X205000D01*
X196000D02*
X196200D01*
X191400D02*
X193800D01*
X186800D02*
X188600D01*
X278400Y46800D02*
X279600D01*
X264600D02*
X265800D01*
X262200D02*
X263400D01*
X248400D02*
X249600D01*
X232200D02*
X247000D01*
X224200D02*
X227800D01*
X216200D02*
X218000D01*
X206600D02*
X208200D01*
X203200D02*
X205000D01*
X191400D02*
X195200D01*
X186800D02*
X188600D01*
X278400Y46600D02*
X279600D01*
X264600D02*
X265800D01*
X262200D02*
X263400D01*
X248400D02*
X249600D01*
X232200D02*
X247000D01*
X223200D02*
X227600D01*
X216200D02*
X218000D01*
X206600D02*
X208200D01*
X203200D02*
X205000D01*
X191400D02*
X196800D01*
X186800D02*
X188600D01*
X278400Y46400D02*
X279600D01*
X264600D02*
X265800D01*
X262200D02*
X263400D01*
X248400D02*
X249600D01*
X232200D02*
X247000D01*
X222200D02*
X227400D01*
X216200D02*
X218000D01*
X208400D02*
X208600D01*
X206400D02*
X208200D01*
X203200D02*
X205000D01*
X191400D02*
X198000D01*
X187000D02*
X188600D01*
X278400Y46200D02*
X279600D01*
X264600D02*
X265800D01*
X262200D02*
X263400D01*
X248400D02*
X249600D01*
X232200D02*
X247000D01*
X221400D02*
X227200D01*
X216400D02*
X218000D01*
X206400D02*
X208200D01*
X203200D02*
X205000D01*
X191400D02*
X198800D01*
X187000D02*
X188600D01*
X278400Y46000D02*
X279600D01*
X264600D02*
X265800D01*
X262200D02*
X263400D01*
X248400D02*
X249600D01*
X232200D02*
X247000D01*
X221000D02*
X226800D01*
X216400D02*
X218000D01*
X206400D02*
X208200D01*
X203200D02*
X205000D01*
X191400D02*
X199400D01*
X187000D02*
X188600D01*
X278400Y45800D02*
X279600D01*
X264600D02*
X265800D01*
X262200D02*
X263400D01*
X248400D02*
X249600D01*
X232200D02*
X247000D01*
X220600D02*
X226400D01*
X216400D02*
X218000D01*
X206400D02*
X208200D01*
X203200D02*
X205000D01*
X193400D02*
X199800D01*
X191400D02*
X193000D01*
X187000D02*
X188600D01*
X278400Y45600D02*
X279600D01*
X264600D02*
X265800D01*
X262200D02*
X263400D01*
X248400D02*
X249600D01*
X232200D02*
X247000D01*
X220200D02*
X225800D01*
X216400D02*
X218000D01*
X206400D02*
X208200D01*
X203200D02*
X205000D01*
X194200D02*
X200000D01*
X191400D02*
X193000D01*
X187000D02*
X188600D01*
X278400Y45400D02*
X279600D01*
X264600D02*
X265800D01*
X262200D02*
X263400D01*
X248400D02*
X249600D01*
X232200D02*
X247000D01*
X220000D02*
X225200D01*
X216400D02*
X218000D01*
X206400D02*
X208200D01*
X203200D02*
X205000D01*
X195400D02*
X200200D01*
X191400D02*
X193000D01*
X187000D02*
X188600D01*
X278400Y45200D02*
X279600D01*
X264600D02*
X265800D01*
X262200D02*
X263400D01*
X248400D02*
X249600D01*
X232200D02*
X247000D01*
X219800D02*
X224200D01*
X216400D02*
X218000D01*
X206400D02*
X208200D01*
X203200D02*
X205000D01*
X196800D02*
X200600D01*
X191400D02*
X193000D01*
X187000D02*
X188600D01*
X278400Y45000D02*
X279600D01*
X264600D02*
X265800D01*
X262200D02*
X263400D01*
X248400D02*
X249600D01*
X232200D02*
X247000D01*
X219600D02*
X223400D01*
X216200D02*
X218000D01*
X208400D02*
X208600D01*
X206400D02*
X208200D01*
X203200D02*
X205000D01*
X197600D02*
X200600D01*
X191400D02*
X193000D01*
X187000D02*
X188600D01*
X278400Y44800D02*
X279600D01*
X264600D02*
X265800D01*
X262200D02*
X263400D01*
X248400D02*
X249600D01*
X232200D02*
X247000D01*
X219400D02*
X222600D01*
X216200D02*
X218000D01*
X206600D02*
X208200D01*
X203200D02*
X205000D01*
X198200D02*
X200800D01*
X191400D02*
X193000D01*
X187000D02*
X188600D01*
X278400Y44600D02*
X279600D01*
X264600D02*
X265800D01*
X262200D02*
X263400D01*
X248400D02*
X249600D01*
X232200D02*
X247000D01*
X219200D02*
X222000D01*
X216200D02*
X218000D01*
X206600D02*
X208200D01*
X203200D02*
X205000D01*
X198600D02*
X201000D01*
X191400D02*
X193000D01*
X187000D02*
X188600D01*
X278400Y44400D02*
X279600D01*
X264600D02*
X265800D01*
X262200D02*
X263400D01*
X248400D02*
X249600D01*
X232200D02*
X247000D01*
X219200D02*
X221400D01*
X216200D02*
X218000D01*
X206600D02*
X208400D01*
X203200D02*
X205000D01*
X199000D02*
X201000D01*
X198400D02*
X198600D01*
X191400D02*
X193000D01*
X187000D02*
X188600D01*
X278400Y44200D02*
X279600D01*
X264600D02*
X265800D01*
X262200D02*
X263400D01*
X248400D02*
X249600D01*
X232200D02*
X247000D01*
X219000D02*
X221200D01*
X216200D02*
X218000D01*
X206600D02*
X208400D01*
X206200D02*
X206400D01*
X203200D02*
X205000D01*
X199200D02*
X201200D01*
X198800D02*
X199000D01*
X191400D02*
X193000D01*
X187000D02*
X188600D01*
X278400Y44000D02*
X279600D01*
X264600D02*
X265800D01*
X262200D02*
X263400D01*
X248400D02*
X249600D01*
X232200D02*
X247000D01*
X221200D02*
X221400D01*
X219000D02*
X221000D01*
X216000D02*
X217800D01*
X206600D02*
X208400D01*
X203200D02*
X205000D01*
X199400D02*
X201200D01*
X199000D02*
X199200D01*
X191400D02*
X193000D01*
X187000D02*
X188600D01*
X278400Y43800D02*
X279600D01*
X264600D02*
X265800D01*
X262200D02*
X263400D01*
X248400D02*
X249600D01*
X232200D02*
X247000D01*
X221000D02*
X221200D01*
X219000D02*
X220800D01*
X216000D02*
X217800D01*
X206600D02*
X208400D01*
X203200D02*
X205000D01*
X199400D02*
X201200D01*
X191400D02*
X193000D01*
X187000D02*
X188600D01*
X278400Y43600D02*
X279600D01*
X264600D02*
X265800D01*
X262200D02*
X263400D01*
X248400D02*
X249600D01*
X232200D02*
X247000D01*
X227200D02*
X228800D01*
X218800D02*
X220600D01*
X216000D02*
X217800D01*
X206800D02*
X208600D01*
X203200D02*
X205000D01*
X199600D02*
X201400D01*
X191400D02*
X193200D01*
X187000D02*
X188600D01*
X278200Y43400D02*
X279600D01*
X264600D02*
X266000D01*
X262000D02*
X263400D01*
X248400D02*
X249600D01*
X232000D02*
X247000D01*
X227000D02*
X228800D01*
X218800D02*
X220600D01*
X216000D02*
X217800D01*
X206800D02*
X208600D01*
X203200D02*
X205000D01*
X199600D02*
X201400D01*
X191400D02*
X193200D01*
X187000D02*
X188600D01*
X278000Y43200D02*
X279600D01*
X264600D02*
X266200D01*
X261800D02*
X263400D01*
X248400D02*
X249800D01*
X232200D02*
X247000D01*
X227000D02*
X228800D01*
X218800D02*
X220600D01*
X215800D02*
X217600D01*
X206800D02*
X208800D01*
X203200D02*
X205000D01*
X199600D02*
X201400D01*
X191400D02*
X193200D01*
X187000D02*
X188600D01*
X277800Y43000D02*
X279400D01*
X264800D02*
X266400D01*
X261600D02*
X263200D01*
X248400D02*
X250000D01*
X232200D02*
X247000D01*
X227000D02*
X228800D01*
X218800D02*
X220600D01*
X215800D02*
X217600D01*
X207000D02*
X208800D01*
X203200D02*
X205000D01*
X199600D02*
X201400D01*
X191400D02*
X193400D01*
X187000D02*
X188600D01*
X179800D02*
X185400D01*
X277600Y42800D02*
X279200D01*
X265000D02*
X266600D01*
X261400D02*
X263000D01*
X248600D02*
X250200D01*
X232400D02*
X246800D01*
X227000D02*
X228800D01*
X218800D02*
X220600D01*
X215600D02*
X217600D01*
X215200D02*
X215400D01*
X207000D02*
X209000D01*
X203200D02*
X205000D01*
X199600D02*
X201400D01*
X193600D02*
X193800D01*
X191400D02*
X193400D01*
X187000D02*
X188600D01*
X179800D02*
X185400D01*
X277400Y42600D02*
X279000D01*
X265200D02*
X267000D01*
X263000D02*
X263200D01*
X261200D02*
X262800D01*
X256200D02*
X256400D01*
X248800D02*
X250400D01*
X246800D02*
X247000D01*
X232600D02*
X246600D01*
X232200D02*
X232400D01*
X227000D02*
X228600D01*
X218800D02*
X220600D01*
X215600D02*
X217400D01*
X209200D02*
X209400D01*
X207000D02*
X209000D01*
X203200D02*
X205000D01*
X199600D02*
X201400D01*
X191400D02*
X193400D01*
X187000D02*
X188600D01*
X179800D02*
X185400D01*
X265400Y42400D02*
X278800D01*
X262800D02*
X263000D01*
X249000D02*
X262600D01*
X246600D02*
X246800D01*
X232800D02*
X246400D01*
X232400D02*
X232600D01*
X226800D02*
X228600D01*
X218800D02*
X220600D01*
X215400D02*
X217400D01*
X209400D02*
X209600D01*
X207200D02*
X209200D01*
X203200D02*
X205000D01*
X199600D02*
X201400D01*
X193800D02*
X194000D01*
X191400D02*
X193600D01*
X187000D02*
X188600D01*
X179800D02*
X185400D01*
X265600Y42200D02*
X278600D01*
X249200D02*
X262400D01*
X246400D02*
X246600D01*
X233000D02*
X246200D01*
X232600D02*
X232800D01*
X226800D02*
X228600D01*
X219000D02*
X220800D01*
X215200D02*
X217200D01*
X214800D02*
X215000D01*
X207400D02*
X209200D01*
X203200D02*
X205000D01*
X199400D02*
X201400D01*
X194000D02*
X194200D01*
X191400D02*
X193800D01*
X187000D02*
X188600D01*
X179800D02*
X185400D01*
X265800Y42000D02*
X278400D01*
X262400D02*
X262600D01*
X249400D02*
X262200D01*
X246200D02*
X246400D01*
X233200D02*
X246000D01*
X232800D02*
X233000D01*
X226600D02*
X228400D01*
X226200D02*
X226400D01*
X221000D02*
X221200D01*
X219000D02*
X220800D01*
X215000D02*
X217200D01*
X214600D02*
X214800D01*
X207400D02*
X209400D01*
X203200D02*
X205000D01*
X199400D02*
X201200D01*
X199000D02*
X199200D01*
X194200D02*
X194400D01*
X191400D02*
X194000D01*
X187000D02*
X188600D01*
X179800D02*
X185400D01*
X266000Y41800D02*
X278200D01*
X249800D02*
X262000D01*
X246000D02*
X246200D01*
X233400D02*
X245800D01*
X233000D02*
X233200D01*
X226400D02*
X228400D01*
X226000D02*
X226200D01*
X221200D02*
X221400D01*
X219000D02*
X221000D01*
X214800D02*
X217000D01*
X214400D02*
X214600D01*
X210000D02*
X210200D01*
X207600D02*
X209600D01*
X203200D02*
X205000D01*
X199200D02*
X201200D01*
X198800D02*
X199000D01*
X191400D02*
X194200D01*
X187000D02*
X188600D01*
X179800D02*
X185400D01*
X266200Y41600D02*
X278000D01*
X249800D02*
X261800D01*
X245800D02*
X246000D01*
X233600D02*
X245600D01*
X233200D02*
X233400D01*
X226200D02*
X228400D01*
X219200D02*
X221200D01*
X214600D02*
X216800D01*
X207600D02*
X209800D01*
X203200D02*
X205000D01*
X199000D02*
X201200D01*
X198600D02*
X198800D01*
X191200D02*
X194400D01*
X187000D02*
X188600D01*
X179800D02*
X185400D01*
X226000Y41400D02*
X228200D01*
X219200D02*
X221400D01*
X214400D02*
X216600D01*
X210600D02*
X210800D01*
X207800D02*
X210200D01*
X203200D02*
X205000D01*
X198800D02*
X201000D01*
X193000D02*
X194800D01*
X191200D02*
X192800D01*
X187000D02*
X188600D01*
X179800D02*
X185400D01*
X225600Y41200D02*
X228000D01*
X219400D02*
X221800D01*
X214000D02*
X216600D01*
X208000D02*
X210600D01*
X207600D02*
X207800D01*
X203200D02*
X205000D01*
X198600D02*
X201000D01*
X193200D02*
X195200D01*
X191000D02*
X192800D01*
X190000D02*
X190200D01*
X187000D02*
X188600D01*
X179800D02*
X185400D01*
X225000Y41000D02*
X228000D01*
X219600D02*
X222400D01*
X213600D02*
X216400D01*
X208200D02*
X211000D01*
X203200D02*
X205000D01*
X198200D02*
X200800D01*
X193400D02*
X195800D01*
X190000D02*
X192800D01*
X187000D02*
X188600D01*
X179800D02*
X185400D01*
X219800Y40800D02*
X227800D01*
X208400D02*
X216200D01*
X203200D02*
X205000D01*
X193600D02*
X200600D01*
X193000D02*
X193200D01*
X190000D02*
X192800D01*
X187000D02*
X188600D01*
X179800D02*
X185400D01*
X220000Y40600D02*
X227600D01*
X208600D02*
X215800D01*
X203200D02*
X205000D01*
X193800D02*
X200600D01*
X190000D02*
X192800D01*
X187000D02*
X188600D01*
X179800D02*
X185400D01*
X266200Y40400D02*
X278000D01*
X250000D02*
X261600D01*
X233800D02*
X245400D01*
X220200D02*
X227400D01*
X208800D02*
X215600D01*
X203200D02*
X205000D01*
X194000D02*
X200400D01*
X190000D02*
X192600D01*
X187000D02*
X188600D01*
X179800D02*
X185400D01*
X266000Y40200D02*
X278200D01*
X265600D02*
X265800D01*
X249800D02*
X261800D01*
X233600D02*
X245600D01*
X220400D02*
X227000D01*
X209200D02*
X215400D01*
X203200D02*
X205000D01*
X194200D02*
X200200D01*
X190000D02*
X192400D01*
X187000D02*
X188600D01*
X179800D02*
X185400D01*
X278600Y40000D02*
X278800D01*
X265800D02*
X278400D01*
X265400D02*
X265600D01*
X249600D02*
X262000D01*
X233400D02*
X245800D01*
X220800D02*
X226600D01*
X209600D02*
X215000D01*
X203200D02*
X205000D01*
X194400D02*
X199800D01*
X190000D02*
X192200D01*
X187000D02*
X188600D01*
X179800D02*
X185400D01*
X278800Y39800D02*
X279000D01*
X265600D02*
X278600D01*
X265200D02*
X265400D01*
X249600D02*
X262200D01*
X233200D02*
X246000D01*
X221200D02*
X226200D01*
X210000D02*
X214600D01*
X203200D02*
X205000D01*
X194800D02*
X199400D01*
X190000D02*
X192000D01*
X187000D02*
X188600D01*
X179800D02*
X185400D01*
X279000Y39600D02*
X279200D01*
X265400D02*
X278800D01*
X265000D02*
X265200D01*
X249800D02*
X262400D01*
X233000D02*
X246200D01*
X221800D02*
X225800D01*
X210400D02*
X214000D01*
X195400D02*
X199000D01*
X179800D02*
X185400D01*
X279200Y39400D02*
X279400D01*
X265200D02*
X279000D01*
X264800D02*
X265000D01*
X250000D02*
X262600D01*
X249600D02*
X249800D01*
X249000D02*
X249400D01*
X232800D02*
X246400D01*
X223000D02*
X224600D01*
X211400D02*
X213000D01*
X196400D02*
X198000D01*
X179800D02*
X185400D01*
X277600Y39200D02*
X279200D01*
X265000D02*
X266600D01*
X261200D02*
X262800D01*
X250200D02*
X251800D01*
X249800D02*
X250000D01*
X248800D02*
X249600D01*
X232600D02*
X246600D01*
X222200D02*
X222400D01*
X210800D02*
X211000D01*
X179800D02*
X185400D01*
X277800Y39000D02*
X279400D01*
X264800D02*
X266400D01*
X261400D02*
X263000D01*
X250400D02*
X252000D01*
X250000D02*
X250200D01*
X248600D02*
X249800D01*
X232400D02*
X246800D01*
X179800D02*
X185400D01*
X278000Y38800D02*
X279600D01*
X264600D02*
X266200D01*
X261600D02*
X263200D01*
X250600D02*
X252200D01*
X250200D02*
X250400D01*
X248400D02*
X250000D01*
X232200D02*
X247000D01*
X179800D02*
X185400D01*
X278200Y38600D02*
X279600D01*
X264600D02*
X266000D01*
X261800D02*
X263200D01*
X250800D02*
X252400D01*
X250400D02*
X250600D01*
X248200D02*
X250200D01*
X232000D02*
X247000D01*
X179800D02*
X185400D01*
X278400Y38400D02*
X279600D01*
X264600D02*
X265800D01*
X262000D02*
X263200D01*
X251000D02*
X252600D01*
X250600D02*
X250800D01*
X248200D02*
X250400D01*
X232200D02*
X247000D01*
X179800D02*
X185400D01*
X278400Y38200D02*
X279600D01*
X264600D02*
X265800D01*
X262000D02*
X263200D01*
X251200D02*
X252800D01*
X250800D02*
X251000D01*
X248200D02*
X250600D01*
X232200D02*
X247000D01*
X179800D02*
X185400D01*
X278400Y38000D02*
X279600D01*
X264600D02*
X265800D01*
X262000D02*
X263200D01*
X251400D02*
X253000D01*
X251000D02*
X251200D01*
X248200D02*
X250800D01*
X232200D02*
X247000D01*
X201000D02*
X201200D01*
X196000D02*
X196200D01*
X179800D02*
X185400D01*
X166600D02*
X166800D01*
X162400D02*
X162600D01*
X131800D02*
X132000D01*
X278400Y37800D02*
X279600D01*
X264600D02*
X265800D01*
X262000D02*
X263200D01*
X251600D02*
X253200D01*
X251200D02*
X251400D01*
X248200D02*
X251000D01*
X232200D02*
X247000D01*
X197000D02*
X200400D01*
X179800D02*
X185400D01*
X163200D02*
X166000D01*
X128000D02*
X131200D01*
X278400Y37600D02*
X279600D01*
X264600D02*
X265800D01*
X262000D02*
X263200D01*
X251800D02*
X253400D01*
X251400D02*
X251600D01*
X248200D02*
X251200D01*
X232200D02*
X247000D01*
X195200D02*
X201800D01*
X179800D02*
X185400D01*
X179400D02*
X179600D01*
X162000D02*
X167400D01*
X140200D02*
X142000D01*
X126600D02*
X132600D01*
X278400Y37400D02*
X279600D01*
X264600D02*
X265800D01*
X262000D02*
X263200D01*
X252000D02*
X253600D01*
X251600D02*
X251800D01*
X248200D02*
X251400D01*
X232200D02*
X247000D01*
X220000D02*
X222200D01*
X194400D02*
X202600D01*
X179800D02*
X185400D01*
X161200D02*
X168000D01*
X139600D02*
X142800D01*
X125800D02*
X133400D01*
X278400Y37200D02*
X279600D01*
X264600D02*
X265800D01*
X262000D02*
X263200D01*
X252200D02*
X253800D01*
X251800D02*
X252000D01*
X248200D02*
X251600D01*
X232200D02*
X247000D01*
X219000D02*
X223400D01*
X193800D02*
X203400D01*
X176000D02*
X188800D01*
X160600D02*
X168600D01*
X139600D02*
X143400D01*
X125000D02*
X134200D01*
X278400Y37000D02*
X279600D01*
X264600D02*
X265800D01*
X262000D02*
X263200D01*
X252400D02*
X254000D01*
X252000D02*
X252200D01*
X248200D02*
X251800D01*
X232200D02*
X247000D01*
X218200D02*
X224000D01*
X193200D02*
X203800D01*
X176000D02*
X188800D01*
X160000D02*
X169200D01*
X147200D02*
X152400D01*
X139600D02*
X143800D01*
X124600D02*
X134600D01*
X278400Y36800D02*
X279600D01*
X264600D02*
X265800D01*
X262000D02*
X263200D01*
X252600D02*
X254200D01*
X252200D02*
X252400D01*
X248200D02*
X252000D01*
X232200D02*
X247000D01*
X217800D02*
X224400D01*
X210000D02*
X215400D01*
X192800D02*
X204200D01*
X176000D02*
X188800D01*
X159600D02*
X169600D01*
X147200D02*
X152400D01*
X139600D02*
X144200D01*
X124200D02*
X135000D01*
X278400Y36600D02*
X279600D01*
X264600D02*
X265800D01*
X262000D02*
X263200D01*
X252800D02*
X254400D01*
X252400D02*
X252600D01*
X248200D02*
X252200D01*
X232200D02*
X247000D01*
X217400D02*
X224800D01*
X210000D02*
X215400D01*
X192400D02*
X204600D01*
X176000D02*
X188800D01*
X159200D02*
X170000D01*
X147200D02*
X152400D01*
X139600D02*
X144600D01*
X135800D02*
X136000D01*
X123800D02*
X135400D01*
X278400Y36400D02*
X279600D01*
X264600D02*
X265800D01*
X262000D02*
X263200D01*
X253000D02*
X254600D01*
X252600D02*
X252800D01*
X248200D02*
X252400D01*
X232200D02*
X247000D01*
X217000D02*
X225200D01*
X210000D02*
X215400D01*
X192200D02*
X205000D01*
X176000D02*
X188800D01*
X159000D02*
X170400D01*
X147200D02*
X152400D01*
X139600D02*
X144800D01*
X123600D02*
X135800D01*
X278400Y36200D02*
X279600D01*
X264600D02*
X265800D01*
X262000D02*
X263200D01*
X253200D02*
X254800D01*
X252800D02*
X253000D01*
X248200D02*
X252600D01*
X232200D02*
X247000D01*
X216800D02*
X225600D01*
X210000D02*
X215400D01*
X191800D02*
X205400D01*
X191400D02*
X191600D01*
X176000D02*
X188800D01*
X158600D02*
X170600D01*
X147200D02*
X152400D01*
X139600D02*
X145200D01*
X123200D02*
X136000D01*
X278400Y36000D02*
X279600D01*
X264600D02*
X265800D01*
X262000D02*
X263200D01*
X253400D02*
X255000D01*
X253000D02*
X253200D01*
X248200D02*
X252800D01*
X232200D02*
X247000D01*
X216600D02*
X225800D01*
X210000D02*
X215400D01*
X191600D02*
X205600D01*
X176000D02*
X188800D01*
X158200D02*
X171000D01*
X147200D02*
X152400D01*
X139600D02*
X145400D01*
X123000D02*
X136200D01*
X278400Y35800D02*
X279600D01*
X264600D02*
X265800D01*
X262000D02*
X263200D01*
X253600D02*
X255200D01*
X253200D02*
X253400D01*
X248200D02*
X253000D01*
X232200D02*
X247000D01*
X226400D02*
X226600D01*
X216400D02*
X226200D01*
X210000D02*
X215400D01*
X191400D02*
X205800D01*
X191000D02*
X191200D01*
X176000D02*
X188800D01*
X158000D02*
X171200D01*
X147200D02*
X152400D01*
X139600D02*
X145600D01*
X122800D02*
X136400D01*
X278400Y35600D02*
X279600D01*
X264600D02*
X265800D01*
X262000D02*
X263200D01*
X253800D02*
X255400D01*
X253400D02*
X253600D01*
X248200D02*
X253200D01*
X232200D02*
X247000D01*
X216200D02*
X226400D01*
X210000D02*
X215400D01*
X191200D02*
X206000D01*
X190800D02*
X191000D01*
X176000D02*
X188800D01*
X157800D02*
X171400D01*
X147200D02*
X152400D01*
X139600D02*
X145800D01*
X122600D02*
X136600D01*
X278400Y35400D02*
X279600D01*
X264600D02*
X265800D01*
X262000D02*
X263200D01*
X254000D02*
X255600D01*
X253600D02*
X253800D01*
X248200D02*
X253400D01*
X232200D02*
X247000D01*
X216000D02*
X226600D01*
X215600D02*
X215800D01*
X210000D02*
X215400D01*
X191000D02*
X206200D01*
X176000D02*
X188800D01*
X157600D02*
X171600D01*
X147200D02*
X152400D01*
X139600D02*
X146000D01*
X122400D02*
X136800D01*
X278400Y35200D02*
X279600D01*
X264600D02*
X265800D01*
X262000D02*
X263200D01*
X254200D02*
X255800D01*
X253800D02*
X254000D01*
X248200D02*
X253600D01*
X232200D02*
X247000D01*
X215800D02*
X226800D01*
X210000D02*
X215400D01*
X190800D02*
X206400D01*
X176000D02*
X188800D01*
X157400D02*
X171800D01*
X147200D02*
X152400D01*
X139600D02*
X146200D01*
X122200D02*
X137000D01*
X278400Y35000D02*
X279600D01*
X264600D02*
X265800D01*
X262000D02*
X263200D01*
X254400D02*
X256000D01*
X254000D02*
X254200D01*
X248200D02*
X253800D01*
X232200D02*
X247000D01*
X215600D02*
X227000D01*
X210000D02*
X215400D01*
X190800D02*
X206600D01*
X176000D02*
X188800D01*
X157200D02*
X172000D01*
X147200D02*
X152400D01*
X146600D02*
X146800D01*
X139600D02*
X146400D01*
X122000D02*
X137200D01*
X121600D02*
X121800D01*
X278400Y34800D02*
X279600D01*
X264600D02*
X265800D01*
X262000D02*
X263200D01*
X254600D02*
X256200D01*
X254200D02*
X254400D01*
X248200D02*
X254000D01*
X232200D02*
X247000D01*
X227400D02*
X227600D01*
X215600D02*
X227200D01*
X210000D02*
X215400D01*
X190600D02*
X206800D01*
X176000D02*
X188800D01*
X157000D02*
X172200D01*
X147200D02*
X152400D01*
X139600D02*
X146600D01*
X121800D02*
X137400D01*
X278400Y34600D02*
X279600D01*
X264600D02*
X265800D01*
X262000D02*
X263200D01*
X254800D02*
X256400D01*
X254400D02*
X254600D01*
X248200D02*
X254200D01*
X232200D02*
X247000D01*
X210000D02*
X227400D01*
X190600D02*
X207000D01*
X176000D02*
X188800D01*
X156800D02*
X172400D01*
X147200D02*
X152400D01*
X139600D02*
X146600D01*
X121800D02*
X137400D01*
X278400Y34400D02*
X279600D01*
X264600D02*
X265800D01*
X262000D02*
X263200D01*
X255000D02*
X256600D01*
X254600D02*
X254800D01*
X248200D02*
X254400D01*
X232200D02*
X247000D01*
X210000D02*
X227600D01*
X190400D02*
X207200D01*
X176000D02*
X188800D01*
X156600D02*
X172600D01*
X147200D02*
X152400D01*
X139600D02*
X146800D01*
X121600D02*
X137600D01*
X278400Y34200D02*
X279600D01*
X264600D02*
X265800D01*
X262000D02*
X263200D01*
X255200D02*
X256800D01*
X254800D02*
X255000D01*
X248200D02*
X254600D01*
X232200D02*
X247000D01*
X210000D02*
X227600D01*
X190400D02*
X207200D01*
X176000D02*
X188800D01*
X156400D02*
X172800D01*
X147200D02*
X152400D01*
X139600D02*
X147000D01*
X121400D02*
X137600D01*
X278400Y34000D02*
X279600D01*
X264600D02*
X265800D01*
X262000D02*
X263200D01*
X255400D02*
X257000D01*
X255000D02*
X255200D01*
X248200D02*
X254800D01*
X232200D02*
X247000D01*
X210000D02*
X227800D01*
X200000D02*
X207400D01*
X190200D02*
X197800D01*
X176000D02*
X188800D01*
X156200D02*
X173000D01*
X147200D02*
X152400D01*
X139600D02*
X147000D01*
X130800D02*
X137800D01*
X121400D02*
X128800D01*
X278400Y33800D02*
X279600D01*
X264600D02*
X265800D01*
X262000D02*
X263200D01*
X255600D02*
X257200D01*
X255200D02*
X255400D01*
X248200D02*
X255000D01*
X232200D02*
X247000D01*
X210000D02*
X228000D01*
X200800D02*
X207400D01*
X190200D02*
X197000D01*
X176000D02*
X188800D01*
X156200D02*
X173000D01*
X139600D02*
X152400D01*
X131600D02*
X137800D01*
X121200D02*
X127800D01*
X278400Y33600D02*
X279600D01*
X264600D02*
X265800D01*
X262000D02*
X263200D01*
X255800D02*
X257400D01*
X255400D02*
X255600D01*
X248200D02*
X255200D01*
X232200D02*
X247000D01*
X210000D02*
X228000D01*
X201200D02*
X207600D01*
X190200D02*
X196600D01*
X176000D02*
X188800D01*
X165200D02*
X173200D01*
X156000D02*
X164000D01*
X139600D02*
X152400D01*
X132000D02*
X138000D01*
X121200D02*
X127400D01*
X278400Y33400D02*
X279600D01*
X264600D02*
X265800D01*
X262000D02*
X263200D01*
X256000D02*
X257600D01*
X255600D02*
X255800D01*
X248200D02*
X255400D01*
X232200D02*
X247000D01*
X210000D02*
X228200D01*
X201400D02*
X207600D01*
X196600D02*
X196800D01*
X190200D02*
X196200D01*
X179800D02*
X185400D01*
X166200D02*
X173400D01*
X155800D02*
X163000D01*
X139600D02*
X152400D01*
X132200D02*
X138000D01*
X127400D02*
X127600D01*
X121200D02*
X127000D01*
X278400Y33200D02*
X279600D01*
X264600D02*
X265800D01*
X262000D02*
X263200D01*
X256200D02*
X257800D01*
X255800D02*
X256000D01*
X248200D02*
X255600D01*
X232200D02*
X247000D01*
X220200D02*
X228400D01*
X210000D02*
X219400D01*
X201800D02*
X207800D01*
X201200D02*
X201400D01*
X196400D02*
X196600D01*
X190000D02*
X196200D01*
X179800D02*
X185400D01*
X179400D02*
X179600D01*
X166600D02*
X173400D01*
X155800D02*
X162600D01*
X139600D02*
X152400D01*
X132400D02*
X138000D01*
X127000D02*
X127200D01*
X121000D02*
X126800D01*
X278400Y33000D02*
X279600D01*
X264600D02*
X265800D01*
X262000D02*
X263200D01*
X256400D02*
X258000D01*
X256000D02*
X256200D01*
X248200D02*
X255800D01*
X232200D02*
X247000D01*
X221200D02*
X228400D01*
X210000D02*
X218200D01*
X201800D02*
X207800D01*
X201400D02*
X201600D01*
X196200D02*
X196400D01*
X190000D02*
X196000D01*
X179800D02*
X185400D01*
X167000D02*
X173600D01*
X166400D02*
X166600D01*
X155600D02*
X162200D01*
X139600D02*
X152400D01*
X132400D02*
X138000D01*
X126800D02*
X127000D01*
X121000D02*
X126600D01*
X278400Y32800D02*
X279600D01*
X264600D02*
X265800D01*
X262000D02*
X263200D01*
X256600D02*
X258200D01*
X256200D02*
X256400D01*
X248200D02*
X256000D01*
X232200D02*
X247000D01*
X221600D02*
X228600D01*
X210000D02*
X217800D01*
X202000D02*
X207800D01*
X201600D02*
X201800D01*
X190000D02*
X195800D01*
X179800D02*
X185400D01*
X167400D02*
X173600D01*
X166800D02*
X167000D01*
X155600D02*
X162000D01*
X139600D02*
X152400D01*
X132600D02*
X138000D01*
X121000D02*
X126400D01*
X278400Y32600D02*
X279600D01*
X264600D02*
X265800D01*
X262000D02*
X263200D01*
X256800D02*
X258400D01*
X256400D02*
X256600D01*
X248200D02*
X256200D01*
X232200D02*
X247000D01*
X228800D02*
X229000D01*
X222000D02*
X228600D01*
X210000D02*
X217400D01*
X202000D02*
X207800D01*
X190000D02*
X195800D01*
X179800D02*
X185400D01*
X167600D02*
X173800D01*
X162000D02*
X162200D01*
X155400D02*
X161600D01*
X139600D02*
X152400D01*
X132600D02*
X138200D01*
X121000D02*
X126400D01*
X278400Y32400D02*
X279600D01*
X264600D02*
X265800D01*
X262000D02*
X263200D01*
X257000D02*
X258600D01*
X256600D02*
X256800D01*
X248200D02*
X256400D01*
X232200D02*
X247000D01*
X222200D02*
X228800D01*
X217400D02*
X217600D01*
X210000D02*
X217000D01*
X202200D02*
X208000D01*
X190000D02*
X195800D01*
X179800D02*
X185400D01*
X167800D02*
X173800D01*
X155400D02*
X161400D01*
X142800D02*
X152400D01*
X139600D02*
X140400D01*
X132600D02*
X138200D01*
X120800D02*
X126400D01*
X278400Y32200D02*
X279600D01*
X264600D02*
X265800D01*
X262000D02*
X263200D01*
X257200D02*
X258800D01*
X256800D02*
X257000D01*
X248200D02*
X256600D01*
X232200D02*
X247000D01*
X222400D02*
X228800D01*
X222000D02*
X222200D01*
X210000D02*
X216800D01*
X202200D02*
X208000D01*
X190000D02*
X195600D01*
X179800D02*
X185400D01*
X168000D02*
X174000D01*
X155200D02*
X161200D01*
X143600D02*
X152400D01*
X132600D02*
X138200D01*
X120800D02*
X126200D01*
X278400Y32000D02*
X279600D01*
X264600D02*
X265800D01*
X262000D02*
X263200D01*
X257400D02*
X259000D01*
X257000D02*
X257200D01*
X248200D02*
X256800D01*
X232200D02*
X247000D01*
X222600D02*
X228800D01*
X222200D02*
X222400D01*
X210000D02*
X216600D01*
X202400D02*
X208000D01*
X190000D02*
X195600D01*
X179800D02*
X185400D01*
X168000D02*
X174000D01*
X155200D02*
X161200D01*
X144200D02*
X152400D01*
X132400D02*
X138200D01*
X120800D02*
X126200D01*
X278400Y31800D02*
X279600D01*
X264600D02*
X265800D01*
X262000D02*
X263200D01*
X257600D02*
X259200D01*
X257200D02*
X257400D01*
X248200D02*
X257000D01*
X232200D02*
X247000D01*
X222800D02*
X229000D01*
X222400D02*
X222600D01*
X210000D02*
X216400D01*
X202400D02*
X208000D01*
X190000D02*
X195600D01*
X179800D02*
X185400D01*
X168200D02*
X174200D01*
X167800D02*
X168000D01*
X161200D02*
X161400D01*
X155000D02*
X161000D01*
X144600D02*
X152400D01*
X132400D02*
X138200D01*
X132000D02*
X132200D01*
X120800D02*
X126200D01*
X278400Y31600D02*
X279600D01*
X264600D02*
X265800D01*
X262000D02*
X263200D01*
X257800D02*
X259400D01*
X257400D02*
X257600D01*
X248200D02*
X257200D01*
X232200D02*
X247000D01*
X223000D02*
X229000D01*
X222600D02*
X222800D01*
X210000D02*
X216400D01*
X202400D02*
X208000D01*
X190000D02*
X195600D01*
X179800D02*
X185400D01*
X168400D02*
X174200D01*
X155000D02*
X160800D01*
X144800D02*
X152400D01*
X132400D02*
X138200D01*
X120800D02*
X126200D01*
X278400Y31400D02*
X279600D01*
X264600D02*
X265800D01*
X262000D02*
X263200D01*
X258000D02*
X259600D01*
X257600D02*
X257800D01*
X248200D02*
X257400D01*
X232200D02*
X247000D01*
X223200D02*
X229000D01*
X216400D02*
X216600D01*
X210000D02*
X216200D01*
X202400D02*
X208000D01*
X190000D02*
X195600D01*
X179800D02*
X185400D01*
X168400D02*
X174200D01*
X155000D02*
X160800D01*
X145200D02*
X152400D01*
X144600D02*
X144800D01*
X132200D02*
X138200D01*
X131600D02*
X131800D01*
X278400Y31200D02*
X279600D01*
X264600D02*
X265800D01*
X262000D02*
X263200D01*
X258200D02*
X259800D01*
X257800D02*
X258000D01*
X248200D02*
X257600D01*
X232200D02*
X247000D01*
X223200D02*
X229200D01*
X210000D02*
X216200D01*
X202400D02*
X208000D01*
X190000D02*
X195600D01*
X179800D02*
X185400D01*
X168600D02*
X174400D01*
X154800D02*
X160600D01*
X145400D02*
X152400D01*
X131800D02*
X138200D01*
X278400Y31000D02*
X279600D01*
X264600D02*
X265800D01*
X262000D02*
X263200D01*
X258400D02*
X260000D01*
X258000D02*
X258200D01*
X248200D02*
X257800D01*
X232200D02*
X247000D01*
X223400D02*
X229200D01*
X210000D02*
X216000D01*
X190000D02*
X195800D01*
X179800D02*
X185400D01*
X168600D02*
X174400D01*
X154800D02*
X160600D01*
X145600D02*
X152400D01*
X131600D02*
X138200D01*
X278400Y30800D02*
X279600D01*
X264600D02*
X265800D01*
X262000D02*
X263200D01*
X258600D02*
X260200D01*
X258200D02*
X258400D01*
X248200D02*
X258000D01*
X232200D02*
X247000D01*
X223400D02*
X229200D01*
X210000D02*
X216000D01*
X196000D02*
X196200D01*
X190000D02*
X195800D01*
X179800D02*
X185400D01*
X168800D02*
X174400D01*
X154800D02*
X160400D01*
X145600D02*
X152400D01*
X131200D02*
X138200D01*
X278400Y30600D02*
X279600D01*
X264600D02*
X265800D01*
X262000D02*
X263200D01*
X258800D02*
X260400D01*
X248200D02*
X258200D01*
X232200D02*
X247000D01*
X223600D02*
X229200D01*
X210000D02*
X215800D01*
X196200D02*
X196400D01*
X190000D02*
X196000D01*
X179800D02*
X185400D01*
X168800D02*
X174600D01*
X154800D02*
X160400D01*
X145800D02*
X152400D01*
X145400D02*
X145600D01*
X130600D02*
X138000D01*
X278400Y30400D02*
X279600D01*
X264600D02*
X265800D01*
X262000D02*
X263200D01*
X259000D02*
X260600D01*
X248200D02*
X258400D01*
X232200D02*
X247000D01*
X223600D02*
X229400D01*
X210000D02*
X215800D01*
X190000D02*
X196200D01*
X179800D02*
X185400D01*
X168800D02*
X174600D01*
X154600D02*
X160400D01*
X146000D02*
X152400D01*
X129800D02*
X138000D01*
X128400D02*
X128600D01*
X278400Y30200D02*
X279600D01*
X264600D02*
X265600D01*
X262000D02*
X263200D01*
X259200D02*
X260800D01*
X248200D02*
X258600D01*
X232200D02*
X247000D01*
X223600D02*
X229400D01*
X210000D02*
X215600D01*
X190000D02*
X196400D01*
X179800D02*
X185400D01*
X169000D02*
X174600D01*
X154600D02*
X160200D01*
X146000D02*
X152400D01*
X129000D02*
X138000D01*
X278400Y30000D02*
X279600D01*
X264600D02*
X265800D01*
X262000D02*
X263200D01*
X259400D02*
X261000D01*
X248200D02*
X258800D01*
X232200D02*
X247000D01*
X223800D02*
X229400D01*
X210000D02*
X215600D01*
X190000D02*
X197000D01*
X179800D02*
X185400D01*
X169000D02*
X174600D01*
X154600D02*
X160200D01*
X146200D02*
X152400D01*
X145800D02*
X146000D01*
X128000D02*
X138000D01*
X278400Y29800D02*
X279600D01*
X264600D02*
X265800D01*
X262000D02*
X263200D01*
X259600D02*
X261200D01*
X248200D02*
X259000D01*
X232200D02*
X247000D01*
X223800D02*
X229400D01*
X210000D02*
X215600D01*
X190000D02*
X197600D01*
X179800D02*
X185400D01*
X169000D02*
X174600D01*
X160400D02*
X160600D01*
X154600D02*
X160200D01*
X146200D02*
X152400D01*
X127000D02*
X137800D01*
X278400Y29600D02*
X279600D01*
X264600D02*
X265800D01*
X262000D02*
X263200D01*
X259800D02*
X261400D01*
X248200D02*
X259200D01*
X232200D02*
X247000D01*
X223800D02*
X229400D01*
X210000D02*
X215600D01*
X190000D02*
X198600D01*
X179800D02*
X185400D01*
X169000D02*
X174800D01*
X154400D02*
X160200D01*
X146400D02*
X152400D01*
X126200D02*
X137800D01*
X278400Y29400D02*
X279600D01*
X264600D02*
X265800D01*
X262000D02*
X263200D01*
X260000D02*
X261600D01*
X248200D02*
X259400D01*
X232200D02*
X247000D01*
X223800D02*
X229600D01*
X210000D02*
X215600D01*
X202400D02*
X202600D01*
X190000D02*
X200400D01*
X179800D02*
X185400D01*
X169000D02*
X174800D01*
X154400D02*
X160200D01*
X146400D02*
X152400D01*
X125400D02*
X137600D01*
X278400Y29200D02*
X279600D01*
X264600D02*
X265800D01*
X262000D02*
X263200D01*
X260200D02*
X261800D01*
X248200D02*
X259600D01*
X232200D02*
X247000D01*
X223800D02*
X229600D01*
X210000D02*
X215400D01*
X190000D02*
X202000D01*
X179800D02*
X185400D01*
X169000D02*
X174800D01*
X154400D02*
X160200D01*
X146400D02*
X152400D01*
X124800D02*
X137600D01*
X278400Y29000D02*
X279600D01*
X264600D02*
X265800D01*
X260400D02*
X263200D01*
X248200D02*
X259800D01*
X232200D02*
X247000D01*
X224000D02*
X229600D01*
X210000D02*
X215400D01*
X190000D02*
X203000D01*
X179800D02*
X185400D01*
X169200D02*
X174800D01*
X154400D02*
X160000D01*
X146600D02*
X152400D01*
X124200D02*
X137400D01*
X278400Y28800D02*
X279600D01*
X264600D02*
X265800D01*
X260600D02*
X263200D01*
X248200D02*
X260000D01*
X232200D02*
X247000D01*
X224000D02*
X229600D01*
X210000D02*
X215400D01*
X190000D02*
X204000D01*
X179800D02*
X185400D01*
X169200D02*
X174800D01*
X154400D02*
X160000D01*
X154000D02*
X154200D01*
X146600D02*
X152400D01*
X123600D02*
X137200D01*
X278400Y28600D02*
X279600D01*
X264600D02*
X265800D01*
X260800D02*
X263200D01*
X248200D02*
X260200D01*
X232200D02*
X247000D01*
X224000D02*
X229600D01*
X210000D02*
X215400D01*
X190000D02*
X204600D01*
X179800D02*
X185400D01*
X169200D02*
X174800D01*
X154400D02*
X160000D01*
X154000D02*
X154200D01*
X146600D02*
X152400D01*
X123200D02*
X137000D01*
X278400Y28400D02*
X279600D01*
X264600D02*
X265800D01*
X261000D02*
X263200D01*
X248200D02*
X260400D01*
X232200D02*
X247000D01*
X224000D02*
X229600D01*
X210000D02*
X215400D01*
X190000D02*
X205200D01*
X179800D02*
X185400D01*
X169200D02*
X174800D01*
X154400D02*
X160000D01*
X146600D02*
X152400D01*
X122800D02*
X136800D01*
X278400Y28200D02*
X279600D01*
X264600D02*
X265800D01*
X261200D02*
X263200D01*
X248200D02*
X260600D01*
X232200D02*
X247000D01*
X224000D02*
X229600D01*
X210000D02*
X215400D01*
X190000D02*
X205600D01*
X179800D02*
X185400D01*
X169200D02*
X174800D01*
X154400D02*
X160000D01*
X146800D02*
X152400D01*
X122600D02*
X136600D01*
X278400Y28000D02*
X279600D01*
X264600D02*
X265800D01*
X261400D02*
X263200D01*
X248200D02*
X260800D01*
X232200D02*
X247000D01*
X224000D02*
X229600D01*
X210000D02*
X215400D01*
X190000D02*
X206000D01*
X179800D02*
X185400D01*
X169200D02*
X174800D01*
X154400D02*
X160000D01*
X146800D02*
X152400D01*
X122200D02*
X136400D01*
X278200Y27800D02*
X279600D01*
X264600D02*
X266000D01*
X261600D02*
X263200D01*
X248200D02*
X261000D01*
X232000D02*
X247000D01*
X224000D02*
X229600D01*
X210000D02*
X215400D01*
X190000D02*
X206400D01*
X179800D02*
X185400D01*
X169200D02*
X174800D01*
X154400D02*
X160000D01*
X146800D02*
X152400D01*
X122000D02*
X136000D01*
X278000Y27600D02*
X279600D01*
X264600D02*
X266200D01*
X261800D02*
X263200D01*
X248400D02*
X261200D01*
X232200D02*
X247000D01*
X224000D02*
X229600D01*
X210000D02*
X215400D01*
X190000D02*
X206600D01*
X179800D02*
X185400D01*
X169200D02*
X174800D01*
X154400D02*
X160000D01*
X146800D02*
X152400D01*
X146400D02*
X146600D01*
X121800D02*
X135800D01*
X277800Y27400D02*
X279400D01*
X264800D02*
X266400D01*
X262000D02*
X263200D01*
X248400D02*
X261400D01*
X232200D02*
X247000D01*
X224000D02*
X229600D01*
X210000D02*
X215400D01*
X190000D02*
X206800D01*
X179800D02*
X185400D01*
X169200D02*
X174800D01*
X154400D02*
X160000D01*
X146800D02*
X152400D01*
X146400D02*
X146600D01*
X121600D02*
X135400D01*
X277600Y27200D02*
X279200D01*
X265000D02*
X266600D01*
X262200D02*
X263000D01*
X248600D02*
X261600D01*
X232400D02*
X246800D01*
X224000D02*
X229600D01*
X210000D02*
X215400D01*
X190000D02*
X207200D01*
X179800D02*
X185400D01*
X169200D02*
X174800D01*
X154400D02*
X160000D01*
X146800D02*
X152400D01*
X121400D02*
X135000D01*
X265200Y27000D02*
X279000D01*
X262400D02*
X262800D01*
X248800D02*
X261800D01*
X248400D02*
X248600D01*
X246800D02*
X247000D01*
X232600D02*
X246600D01*
X232200D02*
X232400D01*
X224000D02*
X229600D01*
X210000D02*
X215400D01*
X195800D02*
X207400D01*
X190000D02*
X195600D01*
X179800D02*
X185400D01*
X169200D02*
X174800D01*
X154400D02*
X160000D01*
X146800D02*
X152400D01*
X121200D02*
X134400D01*
X265400Y26800D02*
X278800D01*
X249000D02*
X262000D01*
X248600D02*
X248800D01*
X246600D02*
X246800D01*
X232800D02*
X246400D01*
X232400D02*
X232600D01*
X224000D02*
X229600D01*
X210000D02*
X215400D01*
X196400D02*
X207400D01*
X190000D02*
X195600D01*
X179800D02*
X185400D01*
X169200D02*
X174800D01*
X154400D02*
X160000D01*
X146800D02*
X152400D01*
X121000D02*
X133800D01*
X265600Y26600D02*
X278600D01*
X249200D02*
X262200D01*
X248800D02*
X249000D01*
X246400D02*
X246600D01*
X233000D02*
X246200D01*
X232600D02*
X232800D01*
X224000D02*
X229600D01*
X210000D02*
X215400D01*
X197000D02*
X207600D01*
X190000D02*
X195600D01*
X179800D02*
X185400D01*
X169200D02*
X174800D01*
X154400D02*
X160000D01*
X146800D02*
X152400D01*
X120800D02*
X133000D01*
X265800Y26400D02*
X278400D01*
X249400D02*
X262200D01*
X249000D02*
X249200D01*
X246200D02*
X246400D01*
X233200D02*
X246000D01*
X232800D02*
X233000D01*
X223800D02*
X229600D01*
X210000D02*
X215400D01*
X198200D02*
X207800D01*
X190000D02*
X195600D01*
X179800D02*
X185400D01*
X169200D02*
X174800D01*
X154400D02*
X160000D01*
X154000D02*
X154200D01*
X146800D02*
X152400D01*
X120800D02*
X132400D01*
X266000Y26200D02*
X278200D01*
X249600D02*
X262000D01*
X249200D02*
X249400D01*
X246000D02*
X246200D01*
X233400D02*
X245800D01*
X233000D02*
X233200D01*
X223800D02*
X229600D01*
X210000D02*
X215400D01*
X199600D02*
X208000D01*
X190000D02*
X195600D01*
X179800D02*
X185400D01*
X169200D02*
X174800D01*
X154400D02*
X160000D01*
X146800D02*
X152400D01*
X120600D02*
X131400D01*
X266200Y26000D02*
X278000D01*
X262000D02*
X262200D01*
X249800D02*
X261800D01*
X233600D02*
X245600D01*
X223800D02*
X229600D01*
X210000D02*
X215400D01*
X200600D02*
X208000D01*
X190000D02*
X195600D01*
X179800D02*
X185400D01*
X169200D02*
X174800D01*
X154400D02*
X160200D01*
X146800D02*
X152400D01*
X120600D02*
X130600D01*
X223800Y25800D02*
X229400D01*
X210000D02*
X215600D01*
X201200D02*
X208200D01*
X200200D02*
X200400D01*
X190000D02*
X195600D01*
X179800D02*
X185400D01*
X169000D02*
X174800D01*
X154400D02*
X160200D01*
X146800D02*
X152400D01*
X130800D02*
X131000D01*
X120600D02*
X129800D01*
X223800Y25600D02*
X229400D01*
X210000D02*
X215600D01*
X201800D02*
X208200D01*
X190000D02*
X195600D01*
X179800D02*
X185400D01*
X169000D02*
X174800D01*
X154400D02*
X160200D01*
X146800D02*
X152400D01*
X120400D02*
X129000D01*
X223600Y25400D02*
X229400D01*
X210000D02*
X215600D01*
X202000D02*
X208400D01*
X190000D02*
X195600D01*
X179800D02*
X185400D01*
X169000D02*
X174600D01*
X160400D02*
X160600D01*
X154600D02*
X160200D01*
X146800D02*
X152400D01*
X120400D02*
X128200D01*
X223600Y25200D02*
X229400D01*
X210000D02*
X215600D01*
X202400D02*
X208400D01*
X201800D02*
X202000D01*
X190000D02*
X195600D01*
X179800D02*
X185400D01*
X169000D02*
X174600D01*
X154600D02*
X160200D01*
X146800D02*
X152400D01*
X120400D02*
X127600D01*
X223600Y25000D02*
X229400D01*
X210000D02*
X215800D01*
X202600D02*
X208400D01*
X190000D02*
X195600D01*
X179800D02*
X185400D01*
X169000D02*
X174600D01*
X154600D02*
X160200D01*
X146800D02*
X152400D01*
X120400D02*
X127200D01*
X266200Y24800D02*
X278000D01*
X250000D02*
X261800D01*
X233800D02*
X245400D01*
X223400D02*
X229400D01*
X210000D02*
X215800D01*
X202600D02*
X208600D01*
X190000D02*
X195600D01*
X179800D02*
X185400D01*
X168800D02*
X174600D01*
X154600D02*
X160400D01*
X146800D02*
X152400D01*
X120200D02*
X126800D01*
X278400Y24600D02*
X278600D01*
X266000D02*
X278200D01*
X265600D02*
X265800D01*
X262200D02*
X262400D01*
X249800D02*
X262000D01*
X233600D02*
X245600D01*
X223400D02*
X229200D01*
X210000D02*
X216000D01*
X202800D02*
X208600D01*
X202400D02*
X202600D01*
X190000D02*
X195800D01*
X179800D02*
X185400D01*
X168800D02*
X174600D01*
X154600D02*
X160400D01*
X146800D02*
X152400D01*
X126800D02*
X127000D01*
X120200D02*
X126400D01*
X278600Y24400D02*
X278800D01*
X265800D02*
X278400D01*
X265400D02*
X265600D01*
X262400D02*
X262600D01*
X249600D02*
X262200D01*
X233400D02*
X245800D01*
X223200D02*
X229200D01*
X210000D02*
X216000D01*
X202800D02*
X208600D01*
X190000D02*
X195800D01*
X179800D02*
X185400D01*
X168800D02*
X174400D01*
X154800D02*
X160400D01*
X146800D02*
X152400D01*
X120200D02*
X126200D01*
X278800Y24200D02*
X279000D01*
X265600D02*
X278600D01*
X265200D02*
X265400D01*
X262600D02*
X262800D01*
X249400D02*
X262400D01*
X233200D02*
X246000D01*
X223200D02*
X229200D01*
X222800D02*
X223000D01*
X210000D02*
X216200D01*
X208800D02*
X209000D01*
X203000D02*
X208600D01*
X190000D02*
X195800D01*
X179800D02*
X185400D01*
X168600D02*
X174400D01*
X154800D02*
X160600D01*
X146800D02*
X152400D01*
X133200D02*
X138600D01*
X120200D02*
X126000D01*
X265400Y24000D02*
X278800D01*
X265000D02*
X265200D01*
X249200D02*
X262600D01*
X233000D02*
X246200D01*
X223000D02*
X229200D01*
X210000D02*
X216200D01*
X203000D02*
X208600D01*
X190000D02*
X195800D01*
X179800D02*
X185400D01*
X168600D02*
X174400D01*
X154800D02*
X160600D01*
X146800D02*
X152400D01*
X133200D02*
X138600D01*
X126200D02*
X126400D01*
X120200D02*
X126000D01*
X279200Y23800D02*
X279400D01*
X265200D02*
X279000D01*
X264800D02*
X265000D01*
X263000D02*
X263200D01*
X249000D02*
X262800D01*
X232800D02*
X246400D01*
X223000D02*
X229000D01*
X216600D02*
X216800D01*
X210000D02*
X216400D01*
X203000D02*
X208600D01*
X190000D02*
X195800D01*
X179800D02*
X185400D01*
X168400D02*
X174200D01*
X155000D02*
X160800D01*
X146800D02*
X152400D01*
X133200D02*
X138600D01*
X120200D02*
X126000D01*
X265000Y23600D02*
X279200D01*
X248800D02*
X263000D01*
X232600D02*
X246600D01*
X222800D02*
X229000D01*
X222400D02*
X222600D01*
X216800D02*
X217000D01*
X210000D02*
X216600D01*
X203000D02*
X208600D01*
X190000D02*
X195800D01*
X179800D02*
X185400D01*
X168400D02*
X174200D01*
X155000D02*
X160800D01*
X146800D02*
X152400D01*
X133200D02*
X138600D01*
X120200D02*
X125800D01*
X264800Y23400D02*
X279400D01*
X248600D02*
X263200D01*
X232400D02*
X246800D01*
X222600D02*
X229000D01*
X222200D02*
X222400D01*
X217000D02*
X217200D01*
X210000D02*
X216800D01*
X203000D02*
X208600D01*
X190000D02*
X196000D01*
X179800D02*
X185400D01*
X168200D02*
X174200D01*
X167800D02*
X168000D01*
X161200D02*
X161400D01*
X155000D02*
X161000D01*
X146800D02*
X152400D01*
X133200D02*
X138600D01*
X120200D02*
X125800D01*
X264600Y23200D02*
X279600D01*
X248400D02*
X263200D01*
X232200D02*
X247000D01*
X222400D02*
X228800D01*
X210000D02*
X217000D01*
X203000D02*
X208600D01*
X190000D02*
X196000D01*
X179800D02*
X185400D01*
X168200D02*
X174000D01*
X155200D02*
X161200D01*
X146800D02*
X152400D01*
X133200D02*
X138600D01*
X120400D02*
X126000D01*
X264600Y23000D02*
X279600D01*
X248400D02*
X263400D01*
X232000D02*
X247000D01*
X222200D02*
X228800D01*
X210000D02*
X217200D01*
X203000D02*
X208600D01*
X190000D02*
X196200D01*
X179800D02*
X185400D01*
X168000D02*
X174000D01*
X155200D02*
X161200D01*
X146800D02*
X152400D01*
X133000D02*
X138600D01*
X120400D02*
X126000D01*
X264600Y22800D02*
X279600D01*
X248400D02*
X263400D01*
X232200D02*
X247000D01*
X221800D02*
X228800D01*
X210000D02*
X217600D01*
X203000D02*
X208600D01*
X190000D02*
X196200D01*
X179600D02*
X185400D01*
X167800D02*
X173800D01*
X155400D02*
X161400D01*
X146800D02*
X152400D01*
X133000D02*
X138400D01*
X120400D02*
X126000D01*
X264600Y22600D02*
X279600D01*
X248400D02*
X263400D01*
X232200D02*
X247000D01*
X221600D02*
X228600D01*
X210000D02*
X218000D01*
X203000D02*
X208600D01*
X196600D02*
X196800D01*
X190000D02*
X196400D01*
X179600D02*
X185400D01*
X179200D02*
X179400D01*
X167600D02*
X173800D01*
X155400D02*
X161600D01*
X146800D02*
X152400D01*
X132800D02*
X138400D01*
X132400D02*
X132600D01*
X120400D02*
X126000D01*
X264600Y22400D02*
X279600D01*
X248400D02*
X263400D01*
X232200D02*
X247000D01*
X221000D02*
X228600D01*
X210000D02*
X218600D01*
X208800D02*
X209000D01*
X202800D02*
X208600D01*
X196800D02*
X197000D01*
X190000D02*
X196600D01*
X179400D02*
X185400D01*
X167400D02*
X173600D01*
X166800D02*
X167000D01*
X162200D02*
X162400D01*
X155600D02*
X161800D01*
X146800D02*
X152400D01*
X132600D02*
X138400D01*
X132200D02*
X132400D01*
X126400D02*
X126600D01*
X120400D02*
X126200D01*
X264600Y22200D02*
X279600D01*
X248400D02*
X263400D01*
X232200D02*
X247000D01*
X210000D02*
X228400D01*
X208800D02*
X209000D01*
X202800D02*
X208600D01*
X197000D02*
X197200D01*
X190000D02*
X196600D01*
X179000D02*
X185400D01*
X167000D02*
X173600D01*
X155600D02*
X162200D01*
X146800D02*
X152400D01*
X132400D02*
X138400D01*
X132000D02*
X132200D01*
X126600D02*
X126800D01*
X120600D02*
X126400D01*
X264600Y22000D02*
X279600D01*
X248400D02*
X263400D01*
X232200D02*
X247000D01*
X210000D02*
X228400D01*
X202600D02*
X208600D01*
X202200D02*
X202400D01*
X197200D02*
X197400D01*
X190000D02*
X197000D01*
X176000D02*
X185400D01*
X166800D02*
X173400D01*
X155800D02*
X162600D01*
X146800D02*
X152400D01*
X132200D02*
X138200D01*
X126800D02*
X127000D01*
X120600D02*
X126400D01*
X264600Y21800D02*
X279600D01*
X248400D02*
X263400D01*
X232200D02*
X247000D01*
X210000D02*
X228200D01*
X202400D02*
X208600D01*
X201800D02*
X202000D01*
X197600D02*
X197800D01*
X190000D02*
X197200D01*
X176000D02*
X185400D01*
X166200D02*
X173400D01*
X155800D02*
X163000D01*
X146800D02*
X152400D01*
X132000D02*
X138200D01*
X127200D02*
X127400D01*
X120600D02*
X126800D01*
X264600Y21600D02*
X279600D01*
X248400D02*
X263400D01*
X232200D02*
X247000D01*
X210000D02*
X228200D01*
X202200D02*
X208400D01*
X190000D02*
X197400D01*
X176000D02*
X185400D01*
X165200D02*
X173200D01*
X156000D02*
X164000D01*
X146800D02*
X152400D01*
X131600D02*
X138000D01*
X120800D02*
X127000D01*
X264600Y21400D02*
X279600D01*
X248400D02*
X263400D01*
X232200D02*
X247000D01*
X210000D02*
X228000D01*
X201800D02*
X208400D01*
X200000D02*
X200200D01*
X199400D02*
X199800D01*
X190000D02*
X198000D01*
X189600D02*
X189800D01*
X176000D02*
X185400D01*
X156200D02*
X173000D01*
X146800D02*
X152400D01*
X131200D02*
X138000D01*
X129400D02*
X129600D01*
X129000D02*
X129200D01*
X120800D02*
X127600D01*
X264600Y21200D02*
X279600D01*
X248400D02*
X263400D01*
X232200D02*
X247000D01*
X210000D02*
X227800D01*
X201000D02*
X208400D01*
X190000D02*
X198800D01*
X189600D02*
X189800D01*
X176000D02*
X185400D01*
X156200D02*
X173000D01*
X146800D02*
X152400D01*
X130200D02*
X137800D01*
X120800D02*
X128400D01*
X264600Y21000D02*
X279600D01*
X248400D02*
X263400D01*
X232200D02*
X247000D01*
X210000D02*
X227600D01*
X190000D02*
X208200D01*
X176000D02*
X185400D01*
X156400D02*
X172800D01*
X146800D02*
X152400D01*
X121000D02*
X137800D01*
X264600Y20800D02*
X279600D01*
X248400D02*
X263400D01*
X232200D02*
X247000D01*
X210000D02*
X227600D01*
X190000D02*
X208200D01*
X176000D02*
X185400D01*
X156600D02*
X172600D01*
X146800D02*
X152400D01*
X121200D02*
X137600D01*
X264600Y20600D02*
X279600D01*
X248400D02*
X263400D01*
X232200D02*
X247000D01*
X210000D02*
X227400D01*
X190000D02*
X208200D01*
X176000D02*
X185200D01*
X156800D02*
X172400D01*
X146800D02*
X152400D01*
X121200D02*
X137400D01*
X264600Y20400D02*
X279600D01*
X248400D02*
X263400D01*
X232200D02*
X247000D01*
X227400D02*
X227600D01*
X215600D02*
X227200D01*
X210000D02*
X215400D01*
X190000D02*
X208000D01*
X176000D02*
X185200D01*
X157000D02*
X172200D01*
X146800D02*
X152400D01*
X121400D02*
X137400D01*
X264600Y20200D02*
X279600D01*
X248400D02*
X263400D01*
X232200D02*
X247000D01*
X215800D02*
X227000D01*
X210000D02*
X215400D01*
X190000D02*
X208000D01*
X176000D02*
X185200D01*
X157200D02*
X172000D01*
X146800D02*
X152400D01*
X121600D02*
X137200D01*
X264600Y20000D02*
X279600D01*
X248400D02*
X263400D01*
X232200D02*
X247000D01*
X216000D02*
X226800D01*
X210000D02*
X215400D01*
X189800D02*
X207800D01*
X176000D02*
X185000D01*
X157400D02*
X171800D01*
X146800D02*
X152400D01*
X137200D02*
X137400D01*
X121800D02*
X137000D01*
X264600Y19800D02*
X279600D01*
X248400D02*
X263400D01*
X232200D02*
X247000D01*
X216200D02*
X226600D01*
X215600D02*
X215800D01*
X210000D02*
X215400D01*
X189800D02*
X207600D01*
X176000D02*
X184800D01*
X157600D02*
X171600D01*
X146800D02*
X152400D01*
X122000D02*
X136800D01*
X264600Y19600D02*
X279600D01*
X248400D02*
X263400D01*
X232200D02*
X247000D01*
X226600D02*
X226800D01*
X216400D02*
X226400D01*
X210000D02*
X215400D01*
X189800D02*
X207600D01*
X176000D02*
X184800D01*
X157800D02*
X171400D01*
X146800D02*
X152400D01*
X136800D02*
X137000D01*
X122200D02*
X136600D01*
X264600Y19400D02*
X279600D01*
X248400D02*
X263400D01*
X232200D02*
X247000D01*
X216600D02*
X226000D01*
X210000D02*
X215400D01*
X195600D02*
X207400D01*
X189800D02*
X195400D01*
X176000D02*
X184600D01*
X158000D02*
X171200D01*
X146800D02*
X152400D01*
X122400D02*
X136400D01*
X264600Y19200D02*
X279600D01*
X248400D02*
X263400D01*
X232200D02*
X247000D01*
X216800D02*
X225800D01*
X210000D02*
X215400D01*
X195800D02*
X207200D01*
X189800D02*
X195400D01*
X176000D02*
X184400D01*
X158200D02*
X171000D01*
X157800D02*
X158000D01*
X146800D02*
X152400D01*
X136400D02*
X136600D01*
X122600D02*
X136200D01*
X264600Y19000D02*
X279600D01*
X248400D02*
X263400D01*
X232200D02*
X247000D01*
X217200D02*
X225400D01*
X210000D02*
X215400D01*
X196000D02*
X207000D01*
X195600D02*
X195800D01*
X189800D02*
X195400D01*
X176000D02*
X184200D01*
X158600D02*
X170600D01*
X146800D02*
X152400D01*
X122800D02*
X135800D01*
X264600Y18800D02*
X279600D01*
X248400D02*
X263400D01*
X232200D02*
X247000D01*
X217600D02*
X225000D01*
X210000D02*
X215400D01*
X196400D02*
X206600D01*
X189600D02*
X195200D01*
X176000D02*
X184000D01*
X159000D02*
X170400D01*
X146800D02*
X152400D01*
X123200D02*
X135600D01*
X264600Y18600D02*
X279600D01*
X248400D02*
X263400D01*
X232200D02*
X247000D01*
X218000D02*
X224600D01*
X210000D02*
X215400D01*
X196600D02*
X206400D01*
X189600D02*
X195200D01*
X176000D02*
X183800D01*
X159200D02*
X170000D01*
X146800D02*
X152400D01*
X135600D02*
X135800D01*
X123400D02*
X135200D01*
X264600Y18400D02*
X279600D01*
X248400D02*
X263400D01*
X232200D02*
X247000D01*
X218600D02*
X224000D01*
X210000D02*
X215400D01*
X197000D02*
X206200D01*
X189600D02*
X195200D01*
X176000D02*
X183400D01*
X159600D02*
X169600D01*
X146800D02*
X152400D01*
X123800D02*
X134800D01*
X264600Y18200D02*
X279600D01*
X248400D02*
X263400D01*
X232200D02*
X247000D01*
X219200D02*
X223400D01*
X210000D02*
X215400D01*
X197400D02*
X205800D01*
X189400D02*
X195200D01*
X176000D02*
X183000D01*
X160000D02*
X169200D01*
X146800D02*
X152400D01*
X124200D02*
X134400D01*
X264600Y18000D02*
X279600D01*
X248400D02*
X263400D01*
X232200D02*
X247000D01*
X220600D02*
X221600D01*
X210000D02*
X215400D01*
X198000D02*
X205400D01*
X189400D02*
X195000D01*
X176000D02*
X182400D01*
X160600D02*
X168600D01*
X146800D02*
X152400D01*
X124800D02*
X133800D01*
X264600Y17800D02*
X279600D01*
X248400D02*
X263400D01*
X232200D02*
X247000D01*
X222600D02*
X222800D01*
X210000D02*
X215400D01*
X209600D02*
X209800D01*
X198600D02*
X204800D01*
X176400D02*
X181400D01*
X161200D02*
X168000D01*
X146800D02*
X152400D01*
X125400D02*
X133200D01*
X264600Y17600D02*
X279600D01*
X248400D02*
X263400D01*
X232200D02*
X247000D01*
X210000D02*
X215400D01*
X199400D02*
X204200D01*
X162000D02*
X167200D01*
X126400D02*
X132200D01*
X264600Y17400D02*
X279600D01*
X248400D02*
X263400D01*
X232200D02*
X247000D01*
X210000D02*
X215400D01*
X200800D02*
X202800D01*
X163600D02*
X165600D01*
X128200D02*
X130400D01*
X264600Y17200D02*
X279600D01*
X248400D02*
X263400D01*
X232200D02*
X247000D01*
X210000D02*
X215400D01*
X203400D02*
X203600D01*
X131200D02*
X131400D01*
X127200D02*
X127400D01*
X264600Y17000D02*
X279600D01*
X248400D02*
X263400D01*
X232200D02*
X247000D01*
X210200D02*
X215400D01*
X264600Y16800D02*
X279600D01*
X248400D02*
X263400D01*
X232200D02*
X247000D01*
X210200D02*
X215600D01*
X264600Y16600D02*
X279600D01*
X248400D02*
X263400D01*
X232200D02*
X247000D01*
X223600D02*
X228800D01*
X210200D02*
X215600D01*
X264600Y16400D02*
X279600D01*
X248400D02*
X263400D01*
X232200D02*
X247000D01*
X223400D02*
X229000D01*
X210200D02*
X215600D01*
X264600Y16200D02*
X279600D01*
X248400D02*
X263400D01*
X232200D02*
X247000D01*
X223200D02*
X229000D01*
X210200D02*
X215800D01*
X264600Y16000D02*
X279600D01*
X248400D02*
X263400D01*
X232200D02*
X247000D01*
X223200D02*
X229000D01*
X216000D02*
X216200D01*
X210400D02*
X215800D01*
X264600Y15800D02*
X279600D01*
X248400D02*
X263400D01*
X232200D02*
X247000D01*
X223200D02*
X229000D01*
X210400D02*
X216000D01*
X264600Y15600D02*
X279600D01*
X248400D02*
X263400D01*
X232200D02*
X247000D01*
X223000D02*
X228800D01*
X210400D02*
X216000D01*
X264600Y15400D02*
X279600D01*
X248400D02*
X263400D01*
X232200D02*
X247000D01*
X223000D02*
X228800D01*
X216400D02*
X216600D01*
X210400D02*
X216200D01*
X264600Y15200D02*
X279600D01*
X248400D02*
X263400D01*
X232200D02*
X247000D01*
X222800D02*
X228800D01*
X222400D02*
X222600D01*
X216600D02*
X216800D01*
X210600D02*
X216400D01*
X264600Y15000D02*
X279600D01*
X248400D02*
X263400D01*
X232200D02*
X247000D01*
X222600D02*
X228800D01*
X222200D02*
X222400D01*
X216800D02*
X217000D01*
X210600D02*
X216600D01*
X264600Y14800D02*
X279600D01*
X248400D02*
X263400D01*
X232200D02*
X247000D01*
X222400D02*
X228600D01*
X217000D02*
X217200D01*
X210800D02*
X216800D01*
X264600Y14600D02*
X279600D01*
X248400D02*
X263400D01*
X232200D02*
X247000D01*
X222200D02*
X228600D01*
X210800D02*
X217000D01*
X264600Y14400D02*
X279600D01*
X248400D02*
X263400D01*
X232200D02*
X247000D01*
X221800D02*
X228400D01*
X211000D02*
X217400D01*
X264600Y14200D02*
X279600D01*
X248400D02*
X263400D01*
X232200D02*
X247000D01*
X221200D02*
X228400D01*
X211000D02*
X217800D01*
X264600Y14000D02*
X279600D01*
X248400D02*
X263400D01*
X232200D02*
X247000D01*
X220200D02*
X228200D01*
X211200D02*
X218800D01*
X264600Y13800D02*
X279600D01*
X248400D02*
X263400D01*
X232200D02*
X247000D01*
X211400D02*
X228200D01*
X264600Y13600D02*
X279600D01*
X248400D02*
X263400D01*
X232200D02*
X247000D01*
X211400D02*
X228000D01*
X264600Y13400D02*
X279600D01*
X248400D02*
X263400D01*
X232200D02*
X247000D01*
X211600D02*
X227800D01*
X211200D02*
X211400D01*
X264600Y13200D02*
X279600D01*
X248400D02*
X263400D01*
X232200D02*
X247000D01*
X211800D02*
X227800D01*
X264600Y13000D02*
X279600D01*
X248400D02*
X263400D01*
X232200D02*
X247000D01*
X212000D02*
X227600D01*
X264600Y12800D02*
X279600D01*
X248400D02*
X263400D01*
X232200D02*
X247000D01*
X212200D02*
X227400D01*
X264600Y12600D02*
X279600D01*
X248400D02*
X263400D01*
X232200D02*
X247000D01*
X227400D02*
X227600D01*
X212400D02*
X227200D01*
X264600Y12400D02*
X279600D01*
X248400D02*
X263400D01*
X232200D02*
X247000D01*
X227200D02*
X227400D01*
X212600D02*
X227000D01*
X264600Y12200D02*
X279600D01*
X248400D02*
X263400D01*
X232000D02*
X247000D01*
X212800D02*
X226800D01*
X264600Y12000D02*
X279600D01*
X248400D02*
X263400D01*
X232200D02*
X247000D01*
X213200D02*
X226400D01*
X212600D02*
X212800D01*
X264800Y11800D02*
X279400D01*
X248400D02*
X263200D01*
X232200D02*
X247000D01*
X213400D02*
X226200D01*
X265000Y11600D02*
X279200D01*
X248600D02*
X263000D01*
X232400D02*
X246800D01*
X213800D02*
X225800D01*
X265200Y11400D02*
X279000D01*
X263000D02*
X263200D01*
X248800D02*
X262800D01*
X246800D02*
X247000D01*
X232600D02*
X246600D01*
X232200D02*
X232400D01*
X214200D02*
X225400D01*
X265400Y11200D02*
X278800D01*
X249000D02*
X262600D01*
X246600D02*
X246800D01*
X232800D02*
X246400D01*
X232400D02*
X232600D01*
X214600D02*
X225200D01*
X265600Y11000D02*
X278600D01*
X262600D02*
X262800D01*
X249200D02*
X262400D01*
X246400D02*
X246600D01*
X233000D02*
X246200D01*
X232600D02*
X232800D01*
X225200D02*
X225400D01*
X215000D02*
X224600D01*
X265800Y10800D02*
X278400D01*
X249400D02*
X262200D01*
X246200D02*
X246400D01*
X233200D02*
X246000D01*
X232800D02*
X233000D01*
X215600D02*
X224200D01*
X266000Y10600D02*
X278200D01*
X262200D02*
X262400D01*
X249600D02*
X262000D01*
X246000D02*
X246200D01*
X233400D02*
X245800D01*
X233000D02*
X233200D01*
X216200D02*
X223400D01*
X266200Y10400D02*
X278000D01*
X249800D02*
X261800D01*
X233600D02*
X245600D01*
X217200D02*
X222600D01*
X219000Y10200D02*
X221200D01*
M02*
