G04*
G04 #@! TF.GenerationSoftware,Altium Limited,Altium Designer,18.1.6 (161)*
G04*
G04 Layer_Physical_Order=1*
G04 Layer_Color=255*
%FSLAX25Y25*%
%MOIN*%
G70*
G01*
G75*
%ADD11C,0.01000*%
%ADD36C,0.03000*%
%ADD37C,0.05000*%
%ADD38C,0.11000*%
%ADD39C,0.08661*%
%ADD40R,0.06000X0.06000*%
%ADD41C,0.06000*%
%ADD42C,0.13386*%
%ADD43C,0.09449*%
%ADD44C,0.11811*%
%ADD45C,0.16500*%
%ADD46C,0.07500*%
%ADD47C,0.08000*%
%ADD48R,0.07500X0.07500*%
%ADD49R,0.07575X0.07575*%
%ADD50C,0.07575*%
%ADD51R,0.08386X0.08386*%
%ADD52C,0.08386*%
%ADD53C,0.07874*%
%ADD54C,0.05512*%
%ADD55C,0.06500*%
%ADD56C,0.05906*%
%ADD57R,0.05906X0.05906*%
%ADD58R,0.06000X0.06000*%
%ADD59R,0.07500X0.07500*%
G36*
X148930Y395073D02*
X148877Y395008D01*
X148163Y393672D01*
X147723Y392224D01*
X147575Y390717D01*
X147617Y390293D01*
X147201Y390015D01*
X146540Y390368D01*
X145044Y390822D01*
X143488Y390975D01*
X141932Y390822D01*
X140436Y390368D01*
X139057Y389631D01*
X137917Y388696D01*
X137656Y388620D01*
X137509D01*
X137248Y388696D01*
X136108Y389631D01*
X134729Y390368D01*
X133233Y390822D01*
X131677Y390975D01*
X130121Y390822D01*
X128625Y390368D01*
X127246Y389631D01*
X126106Y388696D01*
X125845Y388620D01*
X125698D01*
X125437Y388696D01*
X124297Y389631D01*
X122918Y390368D01*
X121422Y390822D01*
X119866Y390975D01*
X118310Y390822D01*
X116814Y390368D01*
X115435Y389631D01*
X114295Y388696D01*
X114034Y388620D01*
X113887D01*
X113626Y388696D01*
X112486Y389631D01*
X111107Y390368D01*
X109611Y390822D01*
X108055Y390975D01*
X106499Y390822D01*
X105003Y390368D01*
X103624Y389631D01*
X102484Y388696D01*
X102223Y388620D01*
X102076D01*
X101815Y388696D01*
X100675Y389631D01*
X99296Y390368D01*
X97800Y390822D01*
X96244Y390975D01*
X94688Y390822D01*
X93192Y390368D01*
X91813Y389631D01*
X90673Y388696D01*
X90412Y388620D01*
X90265D01*
X90004Y388696D01*
X88864Y389631D01*
X87485Y390368D01*
X85989Y390822D01*
X84433Y390975D01*
X82877Y390822D01*
X81381Y390368D01*
X80002Y389631D01*
X78862Y388696D01*
X78601Y388620D01*
X78454D01*
X78193Y388696D01*
X77053Y389631D01*
X75674Y390368D01*
X74178Y390822D01*
X72622Y390975D01*
X71066Y390822D01*
X69570Y390368D01*
X68191Y389631D01*
X66983Y388639D01*
X66966Y388620D01*
X66466D01*
X66451Y388639D01*
X65242Y389631D01*
X63863Y390368D01*
X62367Y390822D01*
X60811Y390975D01*
X59255Y390822D01*
X57759Y390368D01*
X56380Y389631D01*
X55240Y388696D01*
X54979Y388620D01*
X54832D01*
X54571Y388696D01*
X53431Y389631D01*
X52052Y390368D01*
X50556Y390822D01*
X49000Y390975D01*
X47444Y390822D01*
X45948Y390368D01*
X45287Y390015D01*
X44872Y390293D01*
X44913Y390717D01*
X44765Y392224D01*
X44325Y393672D01*
X43611Y395008D01*
X43558Y395073D01*
X43772Y395525D01*
X148716D01*
X148930Y395073D01*
D02*
G37*
G36*
X213500Y391475D02*
X210500D01*
X209342Y391323D01*
X208262Y390876D01*
X207335Y390164D01*
X204646Y387475D01*
X162799D01*
X162501Y387975D01*
X162875Y389210D01*
X163023Y390717D01*
X162875Y392224D01*
X162435Y393672D01*
X161722Y395008D01*
X161668Y395073D01*
X161882Y395525D01*
X213500D01*
Y391475D01*
D02*
G37*
G36*
X114295Y377304D02*
X115435Y376369D01*
X116814Y375632D01*
X118310Y375178D01*
X119866Y375025D01*
X120282Y375066D01*
X127202Y368146D01*
Y346134D01*
X126702Y345964D01*
X126164Y346665D01*
X102201Y370628D01*
X106728Y375155D01*
X108055Y375025D01*
X109611Y375178D01*
X111107Y375632D01*
X112486Y376369D01*
X113626Y377304D01*
X113887Y377380D01*
X114034D01*
X114295Y377304D01*
D02*
G37*
G36*
X30820Y395073D02*
X30766Y395008D01*
X30053Y393672D01*
X29613Y392224D01*
X29465Y390717D01*
X29613Y389210D01*
X30053Y387761D01*
X30766Y386425D01*
X31727Y385255D01*
X32898Y384294D01*
X34233Y383580D01*
X35682Y383141D01*
X37189Y382992D01*
X38696Y383141D01*
X40145Y383580D01*
X40666Y383859D01*
X41082Y383581D01*
X41025Y383000D01*
X41178Y381444D01*
X41632Y379948D01*
X42369Y378569D01*
X43360Y377361D01*
X44569Y376369D01*
X45948Y375632D01*
X47444Y375178D01*
X47700Y375153D01*
X53926Y368926D01*
X54906Y368122D01*
X56025Y367524D01*
X57238Y367156D01*
X58500Y367032D01*
X66075D01*
X66197Y366547D01*
X65893Y366385D01*
X64456Y365205D01*
X63277Y363768D01*
X62401Y362129D01*
X61861Y360350D01*
X61679Y358500D01*
X61861Y356650D01*
X62401Y354871D01*
X63277Y353232D01*
X64446Y351807D01*
X63277Y350382D01*
X62401Y348743D01*
X61861Y346964D01*
X61679Y345114D01*
X61766Y344229D01*
X61314Y344015D01*
X51050Y354279D01*
X50124Y354990D01*
X49044Y355437D01*
X47886Y355590D01*
X27528D01*
X27231Y355991D01*
X27430Y356650D01*
X27613Y358500D01*
X27430Y360350D01*
X26891Y362129D01*
X26015Y363768D01*
X24835Y365205D01*
X23398Y366385D01*
X21759Y367261D01*
X19980Y367800D01*
X18130Y367983D01*
X16280Y367800D01*
X14501Y367261D01*
X12862Y366385D01*
X11425Y365205D01*
X10245Y363768D01*
X9369Y362129D01*
X8829Y360350D01*
X8647Y358500D01*
X8829Y356650D01*
X9369Y354871D01*
X10245Y353232D01*
X11415Y351807D01*
X10245Y350382D01*
X9369Y348743D01*
X8829Y346964D01*
X8647Y345114D01*
X8829Y343264D01*
X9369Y341485D01*
X10245Y339846D01*
X11425Y338409D01*
X12862Y337230D01*
X14501Y336353D01*
X16280Y335814D01*
X18130Y335631D01*
X19980Y335814D01*
X21759Y336353D01*
X23398Y337230D01*
X24835Y338409D01*
X26015Y339846D01*
X26891Y341485D01*
X27430Y343264D01*
X27613Y345114D01*
X27499Y346268D01*
X27835Y346639D01*
X46032D01*
X59336Y333335D01*
X60262Y332624D01*
X61342Y332177D01*
X62500Y332025D01*
X68896D01*
X70086Y330836D01*
X71012Y330124D01*
X72092Y329677D01*
X73250Y329525D01*
X84750D01*
X85908Y329677D01*
X86988Y330124D01*
X87915Y330836D01*
X90563Y333484D01*
X91025Y333292D01*
Y330013D01*
X89905Y329095D01*
X88921Y327896D01*
X88190Y326528D01*
X87740Y325044D01*
X87588Y323500D01*
X87740Y321956D01*
X88190Y320472D01*
X88921Y319104D01*
X89905Y317905D01*
X91104Y316921D01*
X92472Y316190D01*
X93956Y315740D01*
X95500Y315588D01*
X97044Y315740D01*
X98528Y316190D01*
X99896Y316921D01*
X101095Y317905D01*
X102032Y319047D01*
X102437Y319014D01*
X102532Y318991D01*
Y294500D01*
Y287968D01*
X95500D01*
X94238Y287844D01*
X93025Y287476D01*
X91906Y286878D01*
X90926Y286074D01*
X90122Y285093D01*
X89524Y283975D01*
X89156Y282762D01*
X89032Y281500D01*
Y164679D01*
X73312Y148960D01*
X72508Y147979D01*
X71910Y146861D01*
X71542Y145648D01*
X71418Y144386D01*
Y128178D01*
X70918Y127941D01*
X69768Y128884D01*
X68129Y129761D01*
X66350Y130300D01*
X64500Y130483D01*
X62650Y130300D01*
X60871Y129761D01*
X59232Y128884D01*
X57795Y127705D01*
X56615Y126268D01*
X55739Y124629D01*
X55199Y122850D01*
X55017Y121000D01*
X55199Y119150D01*
X55739Y117371D01*
X56615Y115732D01*
X57795Y114295D01*
X59232Y113116D01*
X60871Y112239D01*
X62650Y111699D01*
X64500Y111517D01*
X66350Y111699D01*
X68129Y112239D01*
X69768Y113116D01*
X71193Y114285D01*
X72618Y113116D01*
X74257Y112239D01*
X76036Y111699D01*
X77886Y111517D01*
X79736Y111699D01*
X81515Y112239D01*
X83154Y113116D01*
X84591Y114295D01*
X85770Y115732D01*
X86647Y117371D01*
X87186Y119150D01*
X87369Y121000D01*
X87186Y122850D01*
X86647Y124629D01*
X85770Y126268D01*
X84591Y127705D01*
X84354Y127900D01*
Y141707D01*
X88570Y145923D01*
X89032Y145731D01*
Y145000D01*
X89156Y143738D01*
X89524Y142525D01*
X90122Y141407D01*
X90926Y140426D01*
X128926Y102426D01*
X129906Y101622D01*
X131025Y101024D01*
X132238Y100656D01*
X133500Y100532D01*
X291068D01*
X291130Y100460D01*
X292202Y99544D01*
X292387Y99314D01*
X292277Y98864D01*
X291433Y97835D01*
X290895Y96829D01*
X290291Y96093D01*
X289694Y94975D01*
X289325Y93762D01*
X289201Y92500D01*
X289325Y91238D01*
X289694Y90025D01*
X290291Y88907D01*
X291096Y87926D01*
X292076Y87122D01*
X292455Y86919D01*
X292515Y86846D01*
X293776Y85812D01*
X293811Y85520D01*
X293776Y85228D01*
X292515Y84194D01*
X291433Y82875D01*
X290629Y81370D01*
X290133Y79737D01*
X289966Y78039D01*
X290133Y76341D01*
X290629Y74709D01*
X291433Y73204D01*
X292515Y71885D01*
X293834Y70803D01*
X293896Y70770D01*
Y70270D01*
X293834Y70236D01*
X292515Y69154D01*
X291433Y67835D01*
X290629Y66331D01*
X290133Y64698D01*
X289966Y63000D01*
X290133Y61302D01*
X290629Y59669D01*
X291433Y58165D01*
X292277Y57136D01*
X292387Y56686D01*
X292202Y56456D01*
X291130Y55540D01*
X290043Y54267D01*
X289169Y52841D01*
X288528Y51295D01*
X288138Y49668D01*
X288007Y48000D01*
X288138Y46332D01*
X288528Y44705D01*
X289169Y43159D01*
X290043Y41733D01*
X291130Y40460D01*
X292402Y39374D01*
X293829Y38499D01*
X295374Y37859D01*
X297001Y37468D01*
X298669Y37337D01*
X300337Y37468D01*
X301964Y37859D01*
X303510Y38499D01*
X304937Y39374D01*
X306209Y40460D01*
X307296Y41733D01*
X308170Y43159D01*
X308810Y44705D01*
X309201Y46332D01*
X309332Y48000D01*
X309201Y49668D01*
X308810Y51295D01*
X308170Y52841D01*
X307296Y54267D01*
X306209Y55540D01*
X305136Y56456D01*
X304952Y56686D01*
X305062Y57136D01*
X305906Y58165D01*
X306710Y59669D01*
X307206Y61302D01*
X307373Y63000D01*
X307206Y64698D01*
X306710Y66331D01*
X305906Y67835D01*
X304824Y69154D01*
X303505Y70236D01*
X303443Y70270D01*
Y70770D01*
X303505Y70803D01*
X304824Y71885D01*
X305791Y73064D01*
X335295D01*
X335736Y72828D01*
X337091Y72417D01*
X338500Y72278D01*
X339909Y72417D01*
X341264Y72828D01*
X342512Y73495D01*
X343607Y74393D01*
X344505Y75488D01*
X345172Y76736D01*
X345583Y78091D01*
X345722Y79500D01*
X345583Y80909D01*
X345172Y82264D01*
X344505Y83512D01*
X343607Y84607D01*
X342512Y85505D01*
X341264Y86172D01*
X339909Y86583D01*
X338500Y86722D01*
X337899Y86663D01*
X337747Y86850D01*
X338004Y87327D01*
X338500Y87278D01*
X339909Y87417D01*
X341264Y87828D01*
X342512Y88495D01*
X343607Y89393D01*
X344505Y90488D01*
X345172Y91736D01*
X345583Y93091D01*
X345722Y94500D01*
X345657Y95161D01*
X345992Y95532D01*
X383266D01*
X383688Y95404D01*
X385000Y95275D01*
X386032Y95376D01*
X386532Y94998D01*
Y79002D01*
X386032Y78624D01*
X385000Y78725D01*
X383688Y78596D01*
X382426Y78213D01*
X381264Y77592D01*
X380244Y76755D01*
X379408Y75736D01*
X378787Y74574D01*
X378404Y73312D01*
X378275Y72000D01*
X378310Y71639D01*
X375646Y68975D01*
X344125D01*
X343607Y69607D01*
X342512Y70505D01*
X341264Y71172D01*
X339909Y71583D01*
X338500Y71722D01*
X337091Y71583D01*
X335736Y71172D01*
X334488Y70505D01*
X333393Y69607D01*
X332495Y68512D01*
X331828Y67264D01*
X331417Y65909D01*
X331278Y64500D01*
X331417Y63091D01*
X331828Y61736D01*
X332495Y60488D01*
X333393Y59393D01*
X334488Y58495D01*
X335736Y57828D01*
X337091Y57417D01*
X338500Y57278D01*
X339909Y57417D01*
X341264Y57828D01*
X342512Y58495D01*
X343607Y59393D01*
X344125Y60025D01*
X353555D01*
X353681Y59525D01*
X353407Y59378D01*
X352426Y58574D01*
X342540Y48687D01*
X336313D01*
Y33313D01*
X351687D01*
Y39540D01*
X359679Y47532D01*
X375642D01*
X375939Y47032D01*
X375364Y45956D01*
X374924Y44507D01*
X374776Y43000D01*
X374924Y41493D01*
X375065Y41027D01*
X374813Y40687D01*
X374813D01*
Y25313D01*
X381440D01*
X381500Y24813D01*
X380722Y24626D01*
X378950Y23892D01*
X377314Y22890D01*
X375856Y21644D01*
X374610Y20186D01*
X373608Y18550D01*
X372874Y16778D01*
X372426Y14912D01*
X372275Y13000D01*
X372426Y11088D01*
X372874Y9222D01*
X373608Y7450D01*
X374610Y5815D01*
X375366Y4929D01*
X375157Y4475D01*
X21843D01*
X21634Y4929D01*
X22390Y5815D01*
X23392Y7450D01*
X24126Y9222D01*
X24574Y11088D01*
X24725Y13000D01*
X24574Y14912D01*
X24126Y16778D01*
X23392Y18550D01*
X22390Y20186D01*
X21144Y21644D01*
X19685Y22890D01*
X18050Y23892D01*
X16278Y24626D01*
X14412Y25074D01*
X12500Y25225D01*
X10588Y25074D01*
X8722Y24626D01*
X6950Y23892D01*
X5314Y22890D01*
X4929Y22561D01*
X4475Y22770D01*
Y37714D01*
X4927Y37927D01*
X5346Y37584D01*
X6985Y36708D01*
X8764Y36168D01*
X10614Y35986D01*
X12464Y36168D01*
X14243Y36708D01*
X15882Y37584D01*
X17307Y38753D01*
X18732Y37584D01*
X20371Y36708D01*
X22150Y36168D01*
X24000Y35986D01*
X25850Y36168D01*
X27629Y36708D01*
X28289Y37060D01*
X28718Y36803D01*
Y21320D01*
X27705Y20488D01*
X26739Y19312D01*
X26022Y17970D01*
X25580Y16514D01*
X25431Y15000D01*
X25580Y13486D01*
X26022Y12030D01*
X26739Y10688D01*
X27705Y9512D01*
X28881Y8546D01*
X30223Y7829D01*
X31679Y7387D01*
X33193Y7238D01*
X34707Y7387D01*
X36163Y7829D01*
X37505Y8546D01*
X38681Y9512D01*
X39647Y10688D01*
X40364Y12030D01*
X40806Y13486D01*
X40955Y15000D01*
X40806Y16514D01*
X40364Y17970D01*
X39647Y19312D01*
X38681Y20488D01*
X37668Y21320D01*
Y52808D01*
X40373Y55513D01*
X40853Y55286D01*
X40776Y54500D01*
X40924Y52993D01*
X41364Y51544D01*
X42078Y50209D01*
X43038Y49038D01*
X44209Y48078D01*
X45544Y47364D01*
X46993Y46924D01*
X48500Y46776D01*
X50007Y46924D01*
X51456Y47364D01*
X52791Y48078D01*
X53962Y49038D01*
X54922Y50209D01*
X55636Y51544D01*
X56076Y52993D01*
X56224Y54500D01*
X56076Y56007D01*
X55636Y57456D01*
X54922Y58791D01*
X53962Y59962D01*
X52791Y60922D01*
X51456Y61636D01*
X50007Y62076D01*
X48500Y62224D01*
X47714Y62147D01*
X47487Y62627D01*
X63563Y78702D01*
X64025Y78511D01*
Y62187D01*
X60813D01*
Y46813D01*
X76187D01*
Y62187D01*
X72975D01*
Y88115D01*
X83385Y98525D01*
X94232D01*
X94777Y97505D01*
X96007Y96007D01*
X97505Y94777D01*
X99215Y93863D01*
X101070Y93300D01*
X103000Y93110D01*
X104929Y93300D01*
X106785Y93863D01*
X108495Y94777D01*
X109993Y96007D01*
X111223Y97505D01*
X112137Y99215D01*
X112700Y101070D01*
X112890Y103000D01*
X112700Y104929D01*
X112137Y106785D01*
X111223Y108495D01*
X109993Y109993D01*
X108495Y111223D01*
X106785Y112137D01*
X104929Y112700D01*
X103000Y112890D01*
X101070Y112700D01*
X99215Y112137D01*
X97505Y111223D01*
X96007Y109993D01*
X94777Y108495D01*
X94232Y107475D01*
X81532D01*
X80373Y107323D01*
X79294Y106876D01*
X78367Y106165D01*
X64867Y92664D01*
X64867Y92664D01*
X30028Y57826D01*
X30028Y57826D01*
X26710Y54508D01*
X25850Y54769D01*
X24000Y54951D01*
X22150Y54769D01*
X20371Y54229D01*
X18732Y53353D01*
X17307Y52184D01*
X15882Y53353D01*
X14243Y54229D01*
X12464Y54769D01*
X10614Y54951D01*
X8764Y54769D01*
X6985Y54229D01*
X5346Y53353D01*
X4927Y53009D01*
X4475Y53223D01*
Y90745D01*
X4927Y90959D01*
X5346Y90615D01*
X6985Y89739D01*
X8764Y89200D01*
X10614Y89017D01*
X12464Y89200D01*
X14243Y89739D01*
X15882Y90615D01*
X17307Y91785D01*
X18732Y90615D01*
X20371Y89739D01*
X22150Y89200D01*
X24000Y89017D01*
X25850Y89200D01*
X27629Y89739D01*
X29268Y90615D01*
X30705Y91795D01*
X31885Y93232D01*
X32761Y94871D01*
X33301Y96650D01*
X33483Y98500D01*
X33301Y100350D01*
X32761Y102129D01*
X31885Y103768D01*
X30705Y105205D01*
X29268Y106385D01*
X27629Y107261D01*
X25850Y107800D01*
X24000Y107983D01*
X22846Y107869D01*
X22475Y108205D01*
Y128110D01*
X24390D01*
Y128364D01*
X24761Y128586D01*
X24890Y128592D01*
X26149Y128210D01*
X27500Y128077D01*
X28851Y128210D01*
X30149Y128604D01*
X31346Y129244D01*
X32395Y130105D01*
X33256Y131154D01*
X33896Y132351D01*
X34290Y133649D01*
X34423Y135000D01*
X34290Y136351D01*
X33896Y137649D01*
X33256Y138846D01*
X32395Y139895D01*
X31346Y140756D01*
X30149Y141396D01*
X28851Y141790D01*
X27500Y141923D01*
X26149Y141790D01*
X24890Y141408D01*
X24761Y141413D01*
X24390Y141636D01*
Y141890D01*
X10610D01*
Y128110D01*
X13525D01*
Y107898D01*
X13123Y107601D01*
X12464Y107800D01*
X10614Y107983D01*
X8764Y107800D01*
X6985Y107261D01*
X5346Y106385D01*
X4927Y106041D01*
X4475Y106255D01*
Y378429D01*
X4956Y378565D01*
X5110Y378314D01*
X6356Y376856D01*
X7814Y375610D01*
X9450Y374608D01*
X11222Y373874D01*
X13088Y373426D01*
X15000Y373275D01*
X16912Y373426D01*
X18778Y373874D01*
X20550Y374608D01*
X22185Y375610D01*
X23644Y376856D01*
X24890Y378314D01*
X25892Y379950D01*
X26626Y381722D01*
X27074Y383588D01*
X27225Y385500D01*
X27074Y387412D01*
X26626Y389278D01*
X25892Y391050D01*
X24890Y392686D01*
X23644Y394144D01*
X22613Y395025D01*
X22798Y395525D01*
X30606D01*
X30820Y395073D01*
D02*
G37*
G36*
X375754Y395025D02*
X374610Y393686D01*
X373608Y392050D01*
X372874Y390278D01*
X372426Y388412D01*
X372275Y386500D01*
X372426Y384588D01*
X372874Y382722D01*
X373608Y380950D01*
X374610Y379314D01*
X375856Y377856D01*
X377314Y376610D01*
X378950Y375608D01*
X380722Y374874D01*
X382588Y374426D01*
X384500Y374275D01*
X386412Y374426D01*
X388278Y374874D01*
X390050Y375608D01*
X391686Y376610D01*
X393144Y377856D01*
X394390Y379314D01*
X395025Y380350D01*
X395525Y380209D01*
Y367341D01*
X395054Y367173D01*
X394591Y367737D01*
X393154Y368916D01*
X391515Y369792D01*
X389736Y370332D01*
X387886Y370514D01*
X386036Y370332D01*
X384257Y369792D01*
X382617Y368916D01*
X381193Y367747D01*
X379768Y368916D01*
X378129Y369792D01*
X376350Y370332D01*
X374500Y370514D01*
X372650Y370332D01*
X370871Y369792D01*
X369232Y368916D01*
X367795Y367737D01*
X367038Y366815D01*
X366539Y366790D01*
X343164Y390164D01*
X342238Y390876D01*
X341158Y391323D01*
X340000Y391475D01*
X293475D01*
Y395525D01*
X375585D01*
X375754Y395025D01*
D02*
G37*
G36*
X343090Y377581D02*
X343016Y377087D01*
X342709Y376922D01*
X341538Y375962D01*
X340578Y374791D01*
X339864Y373456D01*
X339424Y372007D01*
X339276Y370500D01*
X339424Y368993D01*
X339864Y367544D01*
X340578Y366209D01*
X341538Y365038D01*
X342709Y364078D01*
X344044Y363364D01*
X345493Y362924D01*
X347000Y362776D01*
X348507Y362924D01*
X349956Y363364D01*
X351291Y364078D01*
X352462Y365038D01*
X353422Y366209D01*
X353587Y366516D01*
X354081Y366590D01*
X364836Y355836D01*
X365762Y355124D01*
X366842Y354677D01*
X367587Y354579D01*
X367795Y354326D01*
X369232Y353147D01*
X370871Y352271D01*
X372650Y351731D01*
X374500Y351549D01*
X376350Y351731D01*
X378129Y352271D01*
X379768Y353147D01*
X381193Y354316D01*
X382617Y353147D01*
X384257Y352271D01*
X386036Y351731D01*
X387886Y351549D01*
X389736Y351731D01*
X391515Y352271D01*
X393154Y353147D01*
X394591Y354326D01*
X395054Y354890D01*
X395525Y354722D01*
Y314310D01*
X395054Y314141D01*
X394591Y314705D01*
X393154Y315884D01*
X391515Y316761D01*
X389736Y317301D01*
X387886Y317483D01*
X386036Y317301D01*
X384257Y316761D01*
X382617Y315884D01*
X381193Y314715D01*
X379768Y315884D01*
X378129Y316761D01*
X376350Y317301D01*
X374500Y317483D01*
X372650Y317301D01*
X370871Y316761D01*
X369232Y315884D01*
X367795Y314705D01*
X366616Y313268D01*
X365739Y311629D01*
X365199Y309850D01*
X365017Y308000D01*
X365199Y306150D01*
X365739Y304371D01*
X366616Y302732D01*
X367795Y301295D01*
X369232Y300115D01*
X370871Y299239D01*
X372650Y298699D01*
X374500Y298517D01*
X376350Y298699D01*
X377123Y298934D01*
X377525Y298636D01*
Y283513D01*
X376405Y282595D01*
X375421Y281396D01*
X374690Y280028D01*
X374240Y278544D01*
X374088Y277000D01*
X374240Y275456D01*
X374690Y273972D01*
X375421Y272604D01*
X376405Y271405D01*
X377604Y270421D01*
X378972Y269690D01*
X380456Y269240D01*
X382000Y269088D01*
X383544Y269240D01*
X385028Y269690D01*
X386396Y270421D01*
X387595Y271405D01*
X388579Y272604D01*
X389310Y273972D01*
X389760Y275456D01*
X389912Y277000D01*
X389760Y278544D01*
X389310Y280028D01*
X388579Y281396D01*
X387595Y282595D01*
X386475Y283513D01*
Y298284D01*
X386846Y298620D01*
X387886Y298517D01*
X389736Y298699D01*
X391515Y299239D01*
X393154Y300115D01*
X394591Y301295D01*
X395054Y301859D01*
X395525Y301690D01*
Y114983D01*
X395025Y114612D01*
X394262Y114844D01*
X393000Y114968D01*
X387029D01*
X386731Y115370D01*
X386766Y115486D01*
X386915Y117000D01*
X386766Y118514D01*
X386325Y119970D01*
X385607Y121312D01*
X384642Y122488D01*
X383466Y123454D01*
X382124Y124171D01*
X380668Y124613D01*
X379153Y124762D01*
X377849Y124633D01*
X356412Y146070D01*
Y152699D01*
X356866Y153071D01*
X357733Y154127D01*
X358377Y155333D01*
X358774Y156640D01*
X358908Y158000D01*
X358774Y159360D01*
X358377Y160668D01*
X357733Y161873D01*
X356866Y162929D01*
X356475Y163250D01*
Y190487D01*
X357595Y191405D01*
X358579Y192604D01*
X359310Y193972D01*
X359760Y195456D01*
X359912Y197000D01*
X359760Y198544D01*
X359310Y200028D01*
X358579Y201396D01*
X357595Y202595D01*
X356475Y203513D01*
Y213846D01*
X356323Y215005D01*
X355876Y216084D01*
X355165Y217011D01*
X303384Y268791D01*
X303620Y269263D01*
X305028Y269690D01*
X306396Y270421D01*
X307595Y271405D01*
X308579Y272604D01*
X309310Y273972D01*
X309760Y275456D01*
X309912Y277000D01*
X309760Y278544D01*
X309310Y280028D01*
X308579Y281396D01*
X307595Y282595D01*
X306396Y283579D01*
X305028Y284310D01*
X303544Y284760D01*
X302000Y284912D01*
X300456Y284760D01*
X298972Y284310D01*
X297604Y283579D01*
X296405Y282595D01*
X295421Y281396D01*
X294690Y280028D01*
X294240Y278544D01*
X294230Y278439D01*
X293771Y278240D01*
X293553Y278407D01*
X292473Y278854D01*
X291315Y279007D01*
X287694D01*
X287270Y279800D01*
X286091Y281237D01*
X284654Y282416D01*
X283015Y283292D01*
X281236Y283832D01*
X279386Y284014D01*
X277536Y283832D01*
X275757Y283292D01*
X274117Y282416D01*
X272693Y281247D01*
X271268Y282416D01*
X269629Y283292D01*
X267850Y283832D01*
X266000Y284014D01*
X264150Y283832D01*
X262371Y283292D01*
X260732Y282416D01*
X259295Y281237D01*
X258116Y279800D01*
X257457Y278568D01*
X256858Y278509D01*
X256752Y278638D01*
X255493Y279671D01*
X254057Y280439D01*
X252506Y280910D01*
X252648Y281379D01*
X252808Y283000D01*
X252648Y284621D01*
X252175Y286179D01*
X251408Y287615D01*
X250374Y288874D01*
X249115Y289908D01*
X247679Y290675D01*
X246121Y291148D01*
X244500Y291308D01*
X242879Y291148D01*
X241321Y290675D01*
X239884Y289908D01*
X238626Y288874D01*
X237592Y287615D01*
X236825Y286179D01*
X236352Y284621D01*
X236192Y283000D01*
X236352Y281379D01*
X236825Y279821D01*
X237592Y278384D01*
X238626Y277126D01*
X239884Y276092D01*
X241321Y275325D01*
X242872Y274854D01*
X242730Y274384D01*
X242570Y272764D01*
X242730Y271143D01*
X243203Y269584D01*
X243970Y268148D01*
X245004Y266889D01*
X246262Y265856D01*
X247699Y265089D01*
X249257Y264616D01*
X250878Y264456D01*
X252499Y264616D01*
X254057Y265089D01*
X255493Y265856D01*
X256752Y266889D01*
X257786Y268148D01*
X258064Y268670D01*
X258562Y268719D01*
X259295Y267826D01*
X260732Y266647D01*
X262371Y265771D01*
X264150Y265231D01*
X266000Y265049D01*
X267850Y265231D01*
X269629Y265771D01*
X271268Y266647D01*
X272693Y267816D01*
X274117Y266647D01*
X275757Y265771D01*
X277536Y265231D01*
X279386Y265049D01*
X281236Y265231D01*
X283015Y265771D01*
X284654Y266647D01*
X286091Y267826D01*
X287270Y269263D01*
X287694Y270056D01*
X289461D01*
X347525Y211993D01*
Y203513D01*
X346405Y202595D01*
X345421Y201396D01*
X344690Y200028D01*
X344240Y198544D01*
X344088Y197000D01*
X344240Y195456D01*
X344690Y193972D01*
X345421Y192604D01*
X346405Y191405D01*
X347525Y190487D01*
Y164937D01*
X337126D01*
Y151063D01*
X347462D01*
Y144217D01*
X347614Y143058D01*
X348061Y141979D01*
X348773Y141052D01*
X371520Y118304D01*
X371392Y117000D01*
X371541Y115486D01*
X371983Y114030D01*
X372700Y112688D01*
X373665Y111512D01*
X373761Y111433D01*
X373786Y110933D01*
X371321Y108468D01*
X325500D01*
X324238Y108344D01*
X323521Y108126D01*
X319574Y112074D01*
X318594Y112878D01*
X317475Y113476D01*
X316262Y113844D01*
X315000Y113968D01*
X307479D01*
X307296Y114267D01*
X306209Y115540D01*
X304937Y116626D01*
X303510Y117501D01*
X302137Y118069D01*
Y144837D01*
X321864Y164563D01*
X326590D01*
Y178437D01*
X312717D01*
Y173710D01*
X295669Y156663D01*
X282952Y169380D01*
X283183Y170140D01*
X283317Y171500D01*
X283183Y172860D01*
X282786Y174168D01*
X282142Y175373D01*
X281275Y176429D01*
X280219Y177296D01*
X279014Y177940D01*
X277706Y178337D01*
X276346Y178471D01*
X274987Y178337D01*
X273679Y177940D01*
X272474Y177296D01*
X271417Y176429D01*
X270551Y175373D01*
X269906Y174168D01*
X269510Y172860D01*
X269376Y171500D01*
X269510Y170140D01*
X269878Y168925D01*
Y166839D01*
X270003Y165577D01*
X270371Y164363D01*
X270968Y163245D01*
X271773Y162265D01*
X289201Y144837D01*
Y113468D01*
X136179D01*
X101968Y147679D01*
Y162000D01*
Y275032D01*
X109000D01*
X110262Y275156D01*
X111475Y275524D01*
X112593Y276122D01*
X113574Y276926D01*
X114378Y277906D01*
X114976Y279025D01*
X115344Y280238D01*
X115468Y281500D01*
Y291525D01*
X115574Y291595D01*
X116048Y291308D01*
X116025Y291067D01*
X116178Y289511D01*
X116632Y288015D01*
X117369Y286636D01*
X118304Y285496D01*
X118380Y285235D01*
Y285088D01*
X118304Y284827D01*
X117369Y283687D01*
X116632Y282308D01*
X116178Y280812D01*
X116025Y279256D01*
X116178Y277700D01*
X116632Y276204D01*
X117369Y274825D01*
X118304Y273685D01*
X118380Y273424D01*
Y273277D01*
X118304Y273016D01*
X117369Y271876D01*
X116632Y270497D01*
X116178Y269001D01*
X116025Y267445D01*
X116178Y265889D01*
X116632Y264393D01*
X117369Y263014D01*
X118304Y261874D01*
X118380Y261613D01*
Y261466D01*
X118304Y261205D01*
X117369Y260065D01*
X116632Y258686D01*
X116178Y257190D01*
X116025Y255634D01*
X116178Y254078D01*
X116632Y252582D01*
X117369Y251203D01*
X118360Y249994D01*
X118380Y249978D01*
Y249478D01*
X118360Y249462D01*
X117369Y248254D01*
X116632Y246875D01*
X116178Y245379D01*
X116025Y243823D01*
X116178Y242267D01*
X116632Y240771D01*
X117369Y239392D01*
X118304Y238252D01*
X118380Y237991D01*
Y237844D01*
X118304Y237583D01*
X117369Y236443D01*
X116632Y235064D01*
X116178Y233568D01*
X116025Y232012D01*
X116178Y230456D01*
X116632Y228960D01*
X116985Y228299D01*
X116707Y227883D01*
X116284Y227925D01*
X114777Y227777D01*
X113328Y227337D01*
X111992Y226623D01*
X110822Y225663D01*
X109861Y224492D01*
X109147Y223157D01*
X108708Y221708D01*
X108559Y220201D01*
X108708Y218694D01*
X109147Y217245D01*
X109861Y215910D01*
X110822Y214739D01*
X111992Y213778D01*
X113328Y213065D01*
X114777Y212625D01*
X116284Y212477D01*
X117790Y212625D01*
X119239Y213065D01*
X120575Y213778D01*
X121745Y214739D01*
X122706Y215910D01*
X123420Y217245D01*
X123859Y218694D01*
X124008Y220201D01*
X123859Y221708D01*
X123420Y223157D01*
X123141Y223678D01*
X123419Y224094D01*
X124000Y224036D01*
X125556Y224190D01*
X127052Y224643D01*
X128431Y225380D01*
X129639Y226372D01*
X130631Y227581D01*
X131368Y228960D01*
X131822Y230456D01*
X131975Y232012D01*
X131822Y233568D01*
X131368Y235064D01*
X130631Y236443D01*
X129696Y237583D01*
X129620Y237844D01*
Y237991D01*
X129696Y238252D01*
X130631Y239392D01*
X131368Y240771D01*
X131822Y242267D01*
X131975Y243823D01*
X131822Y245379D01*
X131368Y246875D01*
X130631Y248254D01*
X129639Y249462D01*
X129808Y249904D01*
X130049Y250150D01*
X134638D01*
Y209764D01*
X134825Y208344D01*
X135373Y207022D01*
X136244Y205886D01*
X165672Y176458D01*
X165517Y174886D01*
X165700Y173036D01*
X166239Y171257D01*
X167115Y169617D01*
X168285Y168193D01*
X167115Y166768D01*
X166239Y165129D01*
X165700Y163350D01*
X165517Y161500D01*
X165700Y159650D01*
X166239Y157871D01*
X167115Y156232D01*
X168295Y154795D01*
X169732Y153615D01*
X171371Y152739D01*
X173150Y152199D01*
X175000Y152017D01*
X176850Y152199D01*
X178629Y152739D01*
X180268Y153615D01*
X181705Y154795D01*
X182885Y156232D01*
X183761Y157871D01*
X184300Y159650D01*
X184483Y161500D01*
X184300Y163350D01*
X183761Y165129D01*
X182885Y166768D01*
X181715Y168193D01*
X182708Y169402D01*
X187343D01*
X206122Y150622D01*
X207258Y149751D01*
X208581Y149203D01*
X210000Y149016D01*
X235500D01*
X236919Y149203D01*
X238242Y149751D01*
X239378Y150622D01*
X253818Y165063D01*
X259937D01*
Y178937D01*
X246746D01*
X246539Y179437D01*
X247445Y180343D01*
X251327D01*
X252746Y180530D01*
X254069Y181078D01*
X255205Y181949D01*
X262271Y189016D01*
X272728D01*
X291115Y170629D01*
X291163Y170140D01*
X291560Y168833D01*
X292204Y167627D01*
X293071Y166571D01*
X294127Y165704D01*
X295333Y165060D01*
X296640Y164663D01*
X298000Y164529D01*
X299360Y164663D01*
X300668Y165060D01*
X301873Y165704D01*
X302929Y166571D01*
X303796Y167627D01*
X304440Y168833D01*
X304837Y170140D01*
X304971Y171500D01*
X304837Y172860D01*
X304440Y174168D01*
X303796Y175373D01*
X302929Y176429D01*
X301873Y177296D01*
X300668Y177940D01*
X299360Y178337D01*
X298871Y178385D01*
X278878Y198378D01*
X278878Y198378D01*
X271484Y205771D01*
Y213792D01*
X272693Y214785D01*
X274117Y213615D01*
X275757Y212739D01*
X277536Y212199D01*
X279386Y212017D01*
X281236Y212199D01*
X283015Y212739D01*
X284654Y213615D01*
X286091Y214795D01*
X287270Y216232D01*
X288147Y217871D01*
X288686Y219650D01*
X288868Y221500D01*
X288686Y223350D01*
X288147Y225129D01*
X287270Y226768D01*
X286091Y228205D01*
X284654Y229384D01*
X283015Y230261D01*
X281236Y230801D01*
X279386Y230983D01*
X277536Y230801D01*
X275757Y230261D01*
X274117Y229384D01*
X272693Y228215D01*
X271268Y229384D01*
X269629Y230261D01*
X267850Y230801D01*
X266000Y230983D01*
X264150Y230801D01*
X262371Y230261D01*
X260732Y229384D01*
X259295Y228205D01*
X258116Y226768D01*
X257239Y225129D01*
X256699Y223350D01*
X256517Y221500D01*
X256699Y219650D01*
X257239Y217871D01*
X258116Y216232D01*
X259295Y214795D01*
X260516Y213792D01*
Y203500D01*
X260703Y202081D01*
X261251Y200758D01*
X261501Y200432D01*
X261280Y199984D01*
X260000D01*
X259089Y199864D01*
X258704Y200318D01*
X259026Y201379D01*
X259186Y203000D01*
X259026Y204621D01*
X258553Y206179D01*
X257786Y207615D01*
X256752Y208874D01*
X255493Y209908D01*
X254057Y210675D01*
X252499Y211148D01*
X250878Y211308D01*
X249257Y211148D01*
X247699Y210675D01*
X246262Y209908D01*
X245004Y208874D01*
X243970Y207615D01*
X243203Y206179D01*
X242730Y204621D01*
X242570Y203000D01*
X242730Y201379D01*
X242807Y201126D01*
X241321Y200675D01*
X239884Y199908D01*
X238626Y198874D01*
X237592Y197616D01*
X236825Y196179D01*
X236352Y194621D01*
X236192Y193000D01*
X236309Y191811D01*
X235865Y191311D01*
X233135D01*
X232691Y191811D01*
X232808Y193000D01*
X232648Y194621D01*
X232175Y196179D01*
X231408Y197616D01*
X230374Y198874D01*
X229116Y199908D01*
X227679Y200675D01*
X226121Y201148D01*
X224500Y201308D01*
X222879Y201148D01*
X221321Y200675D01*
X219884Y199908D01*
X218626Y198874D01*
X217592Y197616D01*
X216825Y196179D01*
X216352Y194621D01*
X216192Y193000D01*
X216309Y191811D01*
X215865Y191311D01*
X201771D01*
X196204Y196878D01*
X195069Y197749D01*
X193746Y198297D01*
X192327Y198484D01*
X190695D01*
X190375Y198874D01*
X189984Y199195D01*
Y242500D01*
X189797Y243919D01*
X189249Y245242D01*
X188378Y246378D01*
X170383Y264373D01*
X170648Y264815D01*
X171304Y264616D01*
X172925Y264456D01*
X174546Y264616D01*
X176104Y265089D01*
X177541Y265856D01*
X178800Y266889D01*
X179833Y268148D01*
X180601Y269584D01*
X181073Y271143D01*
X181233Y272764D01*
X181073Y274384D01*
X180875Y275039D01*
X181261Y275357D01*
X181321Y275325D01*
X182879Y274852D01*
X184500Y274692D01*
X186121Y274852D01*
X187679Y275325D01*
X189116Y276092D01*
X190375Y277126D01*
X191408Y278384D01*
X192175Y279821D01*
X192648Y281379D01*
X192808Y283000D01*
X192648Y284621D01*
X192602Y284773D01*
X215354Y307525D01*
X323445D01*
X324603Y307677D01*
X325682Y308124D01*
X326000Y308368D01*
X335187D01*
Y323742D01*
X319813D01*
Y316475D01*
X249630D01*
Y331130D01*
X233370D01*
Y316475D01*
X213500D01*
X212342Y316323D01*
X211262Y315876D01*
X210335Y315164D01*
X186273Y291102D01*
X186121Y291148D01*
X184500Y291308D01*
X182879Y291148D01*
X181321Y290675D01*
X179885Y289908D01*
X178626Y288874D01*
X177592Y287615D01*
X176825Y286179D01*
X176352Y284621D01*
X176192Y283000D01*
X176352Y281379D01*
X176550Y280724D01*
X176164Y280407D01*
X176104Y280439D01*
X174546Y280912D01*
X172925Y281071D01*
X171304Y280912D01*
X169746Y280439D01*
X168310Y279671D01*
X167051Y278638D01*
X166018Y277379D01*
X165250Y275943D01*
X164777Y274384D01*
X164618Y272764D01*
X164777Y271143D01*
X164976Y270486D01*
X164534Y270221D01*
X163244Y271512D01*
X162108Y272383D01*
X160785Y272931D01*
X159366Y273118D01*
X129820D01*
X129660Y273561D01*
X129696Y273685D01*
X130631Y274825D01*
X131368Y276204D01*
X131822Y277700D01*
X131975Y279256D01*
X131822Y280812D01*
X131368Y282308D01*
X130631Y283687D01*
X129696Y284827D01*
X129620Y285088D01*
Y285235D01*
X129696Y285496D01*
X130631Y286636D01*
X131368Y288015D01*
X131822Y289511D01*
X131975Y291067D01*
X131822Y292623D01*
X131368Y294119D01*
X130631Y295498D01*
X129696Y296638D01*
X129620Y296899D01*
Y297046D01*
X129696Y297307D01*
X130631Y298447D01*
X131368Y299826D01*
X131822Y301322D01*
X131881Y301923D01*
X132378Y302529D01*
X132976Y303647D01*
X133344Y304860D01*
X133468Y306122D01*
X133344Y307384D01*
X132976Y308597D01*
X132378Y309716D01*
X132259Y309861D01*
X132477Y310383D01*
X132756Y310415D01*
X140146Y303025D01*
X140131Y302878D01*
X140314Y301028D01*
X140853Y299249D01*
X141730Y297610D01*
X142909Y296173D01*
X144346Y294993D01*
X145985Y294117D01*
X147764Y293578D01*
X149614Y293395D01*
X151464Y293578D01*
X153243Y294117D01*
X154883Y294993D01*
X156307Y296163D01*
X157732Y294993D01*
X159371Y294117D01*
X161150Y293578D01*
X163000Y293395D01*
X164850Y293578D01*
X166629Y294117D01*
X168268Y294993D01*
X169705Y296173D01*
X170885Y297610D01*
X171761Y299249D01*
X172301Y301028D01*
X172483Y302878D01*
X172301Y304728D01*
X171761Y306507D01*
X170885Y308146D01*
X169705Y309583D01*
X168268Y310763D01*
X166629Y311639D01*
X164850Y312178D01*
X163000Y312361D01*
X161150Y312178D01*
X159371Y311639D01*
X157732Y310763D01*
X156307Y309593D01*
X154883Y310763D01*
X153243Y311639D01*
X151464Y312178D01*
X149614Y312361D01*
X147764Y312178D01*
X145985Y311639D01*
X144816Y311014D01*
X137664Y318164D01*
X136738Y318876D01*
X135658Y319323D01*
X134500Y319475D01*
X130340D01*
X129696Y320260D01*
X129620Y320521D01*
Y320668D01*
X129696Y320929D01*
X130631Y322069D01*
X131368Y323448D01*
X131822Y324944D01*
X131975Y326500D01*
X131822Y328056D01*
X131780Y328195D01*
X134842Y331257D01*
X135553Y332184D01*
X136000Y333263D01*
X136153Y334421D01*
Y368146D01*
X143072Y375066D01*
X143488Y375025D01*
X145044Y375178D01*
X146540Y375632D01*
X147919Y376369D01*
X149128Y377361D01*
X150083Y378525D01*
X206500D01*
X207658Y378677D01*
X208738Y379124D01*
X209665Y379836D01*
X212354Y382525D01*
X225542D01*
X225734Y382063D01*
X202178Y358507D01*
X172074D01*
X171761Y359538D01*
X170885Y361178D01*
X169705Y362615D01*
X168268Y363794D01*
X166629Y364670D01*
X164850Y365210D01*
X163000Y365392D01*
X161150Y365210D01*
X159371Y364670D01*
X157732Y363794D01*
X156307Y362625D01*
X154883Y363794D01*
X153243Y364670D01*
X151464Y365210D01*
X149614Y365392D01*
X147764Y365210D01*
X145985Y364670D01*
X144346Y363794D01*
X142909Y362615D01*
X141730Y361178D01*
X140853Y359538D01*
X140314Y357759D01*
X140131Y355909D01*
X140314Y354060D01*
X140853Y352281D01*
X141730Y350641D01*
X142909Y349204D01*
X144346Y348025D01*
X145985Y347149D01*
X147764Y346609D01*
X149614Y346427D01*
X151464Y346609D01*
X153243Y347149D01*
X154883Y348025D01*
X156307Y349194D01*
X157732Y348025D01*
X159371Y347149D01*
X161150Y346609D01*
X163000Y346427D01*
X164850Y346609D01*
X166629Y347149D01*
X168268Y348025D01*
X169705Y349204D01*
X169994Y349556D01*
X204031D01*
X205190Y349709D01*
X206269Y350156D01*
X207196Y350867D01*
X230215Y373886D01*
X230727Y373691D01*
X231124Y372731D01*
X231836Y371804D01*
X232762Y371093D01*
X233842Y370646D01*
X234649Y370539D01*
X234707Y370430D01*
X235723Y369192D01*
X236961Y368176D01*
X238374Y367421D01*
X239906Y366956D01*
X241500Y366799D01*
X243094Y366956D01*
X244626Y367421D01*
X246039Y368176D01*
X247276Y369192D01*
X248292Y370430D01*
X248326Y370493D01*
X319313D01*
Y362813D01*
X334687D01*
Y378187D01*
X325626D01*
X324769Y378844D01*
X323690Y379291D01*
X322532Y379444D01*
X248326D01*
X248292Y379507D01*
X247276Y380745D01*
X246039Y381761D01*
X245545Y382025D01*
X245671Y382525D01*
X338146D01*
X343090Y377581D01*
D02*
G37*
G36*
X98731Y347744D02*
X98400Y347367D01*
X97738Y347876D01*
X96658Y348323D01*
X95500Y348475D01*
X94750D01*
X93592Y348323D01*
X92512Y347876D01*
X91585Y347165D01*
X82896Y338475D01*
X78506D01*
X78292Y338927D01*
X79046Y339846D01*
X79922Y341485D01*
X80462Y343264D01*
X80644Y345114D01*
X80462Y346964D01*
X79922Y348743D01*
X79046Y350382D01*
X77877Y351807D01*
X79046Y353232D01*
X79922Y354871D01*
X80462Y356650D01*
X80644Y358500D01*
X80462Y360350D01*
X79922Y362129D01*
X79046Y363768D01*
X77867Y365205D01*
X76430Y366385D01*
X76126Y366547D01*
X76248Y367032D01*
X79443D01*
X98731Y347744D01*
D02*
G37*
G36*
X102532Y343943D02*
Y328009D01*
X102437Y327986D01*
X102032Y327953D01*
X101095Y329095D01*
X99975Y330013D01*
Y344000D01*
X99823Y345158D01*
X99376Y346238D01*
X98867Y346901D01*
X99244Y347231D01*
X102532Y343943D01*
D02*
G37*
G36*
X179016Y240229D02*
Y209605D01*
X178564Y209391D01*
X177934Y209908D01*
X176498Y210675D01*
X174940Y211148D01*
X173319Y211308D01*
X171698Y211148D01*
X170140Y210675D01*
X168703Y209908D01*
X167445Y208874D01*
X166411Y207615D01*
X165644Y206179D01*
X165171Y204621D01*
X165011Y203000D01*
X165171Y201379D01*
X165644Y199821D01*
X166411Y198384D01*
X167445Y197125D01*
X168703Y196092D01*
X170140Y195325D01*
X171698Y194852D01*
X173319Y194692D01*
X174940Y194852D01*
X175997Y195173D01*
X176398Y194772D01*
X176352Y194621D01*
X176192Y193000D01*
X176352Y191379D01*
X176825Y189821D01*
X177592Y188384D01*
X178626Y187126D01*
X179885Y186092D01*
X181321Y185325D01*
X182879Y184852D01*
X184500Y184692D01*
X186121Y184852D01*
X187679Y185325D01*
X189116Y186092D01*
X190374Y187126D01*
X190442Y187129D01*
X195622Y181949D01*
X196758Y181078D01*
X197260Y180870D01*
X197160Y180370D01*
X182708D01*
X181705Y181591D01*
X180268Y182770D01*
X178629Y183647D01*
X176850Y184186D01*
X175000Y184369D01*
X173428Y184214D01*
X145606Y212035D01*
Y255634D01*
X145419Y257053D01*
X144871Y258376D01*
X144000Y259512D01*
X142864Y260383D01*
X141541Y260931D01*
X140122Y261118D01*
X129767D01*
X129696Y261205D01*
X129620Y261466D01*
Y261613D01*
X129696Y261874D01*
X129922Y262150D01*
X157095D01*
X179016Y240229D01*
D02*
G37*
G36*
X231472Y179881D02*
X230476Y178885D01*
X229987Y178837D01*
X228679Y178440D01*
X227474Y177796D01*
X226417Y176929D01*
X225551Y175873D01*
X224906Y174668D01*
X224510Y173360D01*
X224376Y172000D01*
X224510Y170640D01*
X224906Y169333D01*
X225551Y168127D01*
X226417Y167071D01*
X227474Y166204D01*
X228679Y165560D01*
X229987Y165163D01*
X231347Y165029D01*
X232706Y165163D01*
X234014Y165560D01*
X235219Y166204D01*
X236275Y167071D01*
X237142Y168127D01*
X237786Y169333D01*
X238183Y170640D01*
X238231Y171129D01*
X245563Y178461D01*
X246063Y178254D01*
Y172818D01*
X233228Y159984D01*
X212271D01*
X207302Y164954D01*
X207567Y165396D01*
X208333Y165163D01*
X209693Y165029D01*
X211053Y165163D01*
X212360Y165560D01*
X213566Y166204D01*
X214622Y167071D01*
X215489Y168127D01*
X216133Y169333D01*
X216530Y170640D01*
X216664Y172000D01*
X216530Y173360D01*
X216133Y174668D01*
X215489Y175873D01*
X214622Y176929D01*
X213566Y177796D01*
X212360Y178440D01*
X211053Y178837D01*
X210521Y178889D01*
X209549Y179635D01*
X209047Y179843D01*
X209147Y180343D01*
X231281D01*
X231472Y179881D01*
D02*
G37*
G36*
X325794Y92439D02*
X325677Y92158D01*
X325525Y91000D01*
Y88000D01*
X325677Y86842D01*
X326124Y85762D01*
X326835Y84835D01*
X329194Y82477D01*
X329003Y82015D01*
X306366D01*
X305906Y82875D01*
X304824Y84194D01*
X303563Y85228D01*
X303528Y85520D01*
X303563Y85812D01*
X303832Y86032D01*
X316000D01*
X317262Y86156D01*
X318475Y86524D01*
X319594Y87122D01*
X320574Y87926D01*
X325370Y92722D01*
X325794Y92439D01*
D02*
G37*
G36*
X395525Y46224D02*
Y19291D01*
X395025Y19150D01*
X394390Y20186D01*
X393144Y21644D01*
X391686Y22890D01*
X390050Y23892D01*
X388278Y24626D01*
X387500Y24813D01*
X387560Y25313D01*
X390187D01*
Y40687D01*
X390187D01*
X389934Y41027D01*
X390048Y41400D01*
X395063Y46415D01*
X395525Y46224D01*
D02*
G37*
%LPC*%
G36*
X55500Y331412D02*
X53956Y331260D01*
X52472Y330810D01*
X51104Y330079D01*
X49905Y329095D01*
X48921Y327896D01*
X48190Y326528D01*
X47740Y325044D01*
X47588Y323500D01*
X47740Y321956D01*
X48190Y320472D01*
X48921Y319104D01*
X49905Y317905D01*
X51104Y316921D01*
X52472Y316190D01*
X53956Y315740D01*
X55500Y315588D01*
X57044Y315740D01*
X58528Y316190D01*
X59896Y316921D01*
X61095Y317905D01*
X62079Y319104D01*
X62810Y320472D01*
X63260Y321956D01*
X63412Y323500D01*
X63260Y325044D01*
X62810Y326528D01*
X62079Y327896D01*
X61095Y329095D01*
X59896Y330079D01*
X58528Y330810D01*
X57044Y331260D01*
X55500Y331412D01*
D02*
G37*
G36*
X15500D02*
X13956Y331260D01*
X12472Y330810D01*
X11104Y330079D01*
X9905Y329095D01*
X8921Y327896D01*
X8190Y326528D01*
X7740Y325044D01*
X7588Y323500D01*
X7740Y321956D01*
X8190Y320472D01*
X8921Y319104D01*
X9905Y317905D01*
X11104Y316921D01*
X12472Y316190D01*
X13956Y315740D01*
X15500Y315588D01*
X17044Y315740D01*
X18528Y316190D01*
X19896Y316921D01*
X21095Y317905D01*
X22079Y319104D01*
X22810Y320472D01*
X23260Y321956D01*
X23412Y323500D01*
X23260Y325044D01*
X22810Y326528D01*
X22079Y327896D01*
X21095Y329095D01*
X19896Y330079D01*
X18528Y330810D01*
X17044Y331260D01*
X15500Y331412D01*
D02*
G37*
G36*
X45500Y251412D02*
X43956Y251260D01*
X42472Y250810D01*
X41104Y250079D01*
X39905Y249095D01*
X38921Y247896D01*
X38190Y246528D01*
X37740Y245044D01*
X37588Y243500D01*
X37740Y241956D01*
X38190Y240472D01*
X38921Y239104D01*
X39905Y237905D01*
X41104Y236921D01*
X42472Y236190D01*
X43956Y235740D01*
X45500Y235588D01*
X47044Y235740D01*
X48528Y236190D01*
X49896Y236921D01*
X51095Y237905D01*
X52079Y239104D01*
X52810Y240472D01*
X53260Y241956D01*
X53412Y243500D01*
X53260Y245044D01*
X52810Y246528D01*
X52079Y247896D01*
X51095Y249095D01*
X49896Y250079D01*
X48528Y250810D01*
X47044Y251260D01*
X45500Y251412D01*
D02*
G37*
G36*
X15500D02*
X13956Y251260D01*
X12472Y250810D01*
X11104Y250079D01*
X9905Y249095D01*
X8921Y247896D01*
X8190Y246528D01*
X7740Y245044D01*
X7588Y243500D01*
X7740Y241956D01*
X8190Y240472D01*
X8921Y239104D01*
X9905Y237905D01*
X11104Y236921D01*
X12472Y236190D01*
X13956Y235740D01*
X15500Y235588D01*
X17044Y235740D01*
X18528Y236190D01*
X19896Y236921D01*
X21095Y237905D01*
X22079Y239104D01*
X22810Y240472D01*
X23260Y241956D01*
X23412Y243500D01*
X23260Y245044D01*
X22810Y246528D01*
X22079Y247896D01*
X21095Y249095D01*
X19896Y250079D01*
X18528Y250810D01*
X17044Y251260D01*
X15500Y251412D01*
D02*
G37*
G36*
X23571Y216724D02*
X8122D01*
Y201276D01*
X23571D01*
Y216724D01*
D02*
G37*
G36*
X65500Y251412D02*
X63956Y251260D01*
X62472Y250810D01*
X61104Y250079D01*
X59905Y249095D01*
X58921Y247896D01*
X58190Y246528D01*
X57740Y245044D01*
X57588Y243500D01*
X57740Y241956D01*
X58190Y240472D01*
X58921Y239104D01*
X59032Y238970D01*
Y228179D01*
X19363Y188511D01*
X18559Y187531D01*
X17961Y186412D01*
X17593Y185199D01*
X17469Y183937D01*
Y180437D01*
X9126D01*
Y166563D01*
X23000D01*
Y166563D01*
X23058Y166616D01*
X23937Y166529D01*
X25297Y166663D01*
X26605Y167060D01*
X27810Y167704D01*
X28866Y168571D01*
X29733Y169627D01*
X30377Y170833D01*
X30774Y172140D01*
X30908Y173500D01*
X30774Y174860D01*
X30405Y176075D01*
Y181258D01*
X47570Y198423D01*
X48032Y198231D01*
Y194500D01*
X48156Y193238D01*
X48524Y192025D01*
X49122Y190907D01*
X49926Y189926D01*
X50906Y189122D01*
X52025Y188524D01*
X53238Y188156D01*
X54500Y188032D01*
X58032D01*
Y180931D01*
X57795Y180737D01*
X56615Y179300D01*
X55739Y177660D01*
X55199Y175882D01*
X55017Y174031D01*
X55199Y172181D01*
X55739Y170403D01*
X56615Y168763D01*
X57795Y167326D01*
X59232Y166147D01*
X60871Y165271D01*
X62650Y164731D01*
X64500Y164549D01*
X66350Y164731D01*
X68129Y165271D01*
X69768Y166147D01*
X71193Y167316D01*
X72618Y166147D01*
X74257Y165271D01*
X76036Y164731D01*
X77886Y164549D01*
X79736Y164731D01*
X81515Y165271D01*
X83154Y166147D01*
X84591Y167326D01*
X85770Y168763D01*
X86647Y170403D01*
X87186Y172181D01*
X87369Y174031D01*
X87186Y175882D01*
X86647Y177660D01*
X85770Y179300D01*
X84591Y180737D01*
X83154Y181916D01*
X81515Y182792D01*
X79736Y183332D01*
X77886Y183514D01*
X76036Y183332D01*
X74257Y182792D01*
X72618Y181916D01*
X71468Y180973D01*
X70968Y181209D01*
Y194500D01*
Y222075D01*
X71476Y223025D01*
X71844Y224238D01*
X71968Y225500D01*
Y238970D01*
X72079Y239104D01*
X72810Y240472D01*
X73260Y241956D01*
X73412Y243500D01*
X73260Y245044D01*
X72810Y246528D01*
X72079Y247896D01*
X71095Y249095D01*
X69896Y250079D01*
X68528Y250810D01*
X67044Y251260D01*
X65500Y251412D01*
D02*
G37*
G36*
X103000Y87890D02*
X101070Y87700D01*
X99215Y87137D01*
X97505Y86223D01*
X96007Y84993D01*
X94777Y83495D01*
X93863Y81785D01*
X93300Y79930D01*
X93110Y78000D01*
X93300Y76070D01*
X93863Y74215D01*
X94777Y72505D01*
X96007Y71007D01*
X97505Y69777D01*
X99215Y68863D01*
X101070Y68300D01*
X103000Y68110D01*
X104929Y68300D01*
X106785Y68863D01*
X108495Y69777D01*
X109993Y71007D01*
X111223Y72505D01*
X112137Y74215D01*
X112700Y76070D01*
X112890Y78000D01*
X112700Y79930D01*
X112137Y81785D01*
X111223Y83495D01*
X109993Y84993D01*
X108495Y86223D01*
X106785Y87137D01*
X104929Y87700D01*
X103000Y87890D01*
D02*
G37*
G36*
Y62890D02*
X101070Y62700D01*
X99215Y62137D01*
X97505Y61223D01*
X96007Y59993D01*
X94777Y58495D01*
X93863Y56785D01*
X93300Y54930D01*
X93110Y53000D01*
X93300Y51070D01*
X93863Y49215D01*
X94777Y47505D01*
X96007Y46007D01*
X97505Y44777D01*
X99215Y43863D01*
X101070Y43300D01*
X103000Y43110D01*
X104929Y43300D01*
X106785Y43863D01*
X108495Y44777D01*
X109993Y46007D01*
X111223Y47505D01*
X112137Y49215D01*
X112700Y51070D01*
X112890Y53000D01*
X112700Y54930D01*
X112137Y56785D01*
X111223Y58495D01*
X109993Y59993D01*
X108495Y61223D01*
X106785Y62137D01*
X104929Y62700D01*
X103000Y62890D01*
D02*
G37*
G36*
X344000Y28724D02*
X342493Y28576D01*
X341044Y28136D01*
X339709Y27422D01*
X338538Y26462D01*
X337578Y25291D01*
X336864Y23956D01*
X336424Y22507D01*
X336276Y21000D01*
X336424Y19493D01*
X336864Y18044D01*
X337578Y16709D01*
X338538Y15538D01*
X339709Y14578D01*
X341044Y13864D01*
X342493Y13424D01*
X344000Y13276D01*
X345507Y13424D01*
X346956Y13864D01*
X348291Y14578D01*
X349462Y15538D01*
X350422Y16709D01*
X351136Y18044D01*
X351576Y19493D01*
X351724Y21000D01*
X351576Y22507D01*
X351136Y23956D01*
X350422Y25291D01*
X349462Y26462D01*
X348291Y27422D01*
X346956Y28136D01*
X345507Y28576D01*
X344000Y28724D01*
D02*
G37*
G36*
X84224Y22724D02*
X68776D01*
Y7276D01*
X84224D01*
Y22724D01*
D02*
G37*
G36*
X347500Y323779D02*
X345993Y323631D01*
X344544Y323191D01*
X343209Y322478D01*
X342038Y321517D01*
X341078Y320346D01*
X340364Y319011D01*
X339924Y317562D01*
X339776Y316055D01*
X339924Y314548D01*
X340364Y313099D01*
X341078Y311764D01*
X342038Y310593D01*
X343209Y309633D01*
X344544Y308919D01*
X345993Y308479D01*
X347500Y308331D01*
X349007Y308479D01*
X350456Y308919D01*
X351791Y309633D01*
X352962Y310593D01*
X353922Y311764D01*
X354636Y313099D01*
X355076Y314548D01*
X355224Y316055D01*
X355076Y317562D01*
X354636Y319011D01*
X353922Y320346D01*
X352962Y321517D01*
X351791Y322478D01*
X350456Y323191D01*
X349007Y323631D01*
X347500Y323779D01*
D02*
G37*
G36*
X224500Y291308D02*
X222879Y291148D01*
X221321Y290675D01*
X219884Y289908D01*
X218626Y288874D01*
X217592Y287615D01*
X216825Y286179D01*
X216352Y284621D01*
X216192Y283000D01*
X216352Y281379D01*
X216825Y279821D01*
X217592Y278384D01*
X218626Y277126D01*
X219884Y276092D01*
X221321Y275325D01*
X222879Y274852D01*
X224500Y274692D01*
X226121Y274852D01*
X227679Y275325D01*
X229116Y276092D01*
X230374Y277126D01*
X231408Y278384D01*
X232175Y279821D01*
X232648Y281379D01*
X232808Y283000D01*
X232648Y284621D01*
X232175Y286179D01*
X231408Y287615D01*
X230374Y288874D01*
X229116Y289908D01*
X227679Y290675D01*
X226121Y291148D01*
X224500Y291308D01*
D02*
G37*
G36*
X204500D02*
X202879Y291148D01*
X201321Y290675D01*
X199884Y289908D01*
X198626Y288874D01*
X197592Y287615D01*
X196825Y286179D01*
X196352Y284621D01*
X196192Y283000D01*
X196352Y281379D01*
X196825Y279821D01*
X197592Y278384D01*
X198626Y277126D01*
X199884Y276092D01*
X201321Y275325D01*
X202879Y274852D01*
X204500Y274692D01*
X206121Y274852D01*
X207679Y275325D01*
X209116Y276092D01*
X210374Y277126D01*
X211408Y278384D01*
X212175Y279821D01*
X212648Y281379D01*
X212808Y283000D01*
X212648Y284621D01*
X212175Y286179D01*
X211408Y287615D01*
X210374Y288874D01*
X209116Y289908D01*
X207679Y290675D01*
X206121Y291148D01*
X204500Y291308D01*
D02*
G37*
G36*
X342000Y284912D02*
X340456Y284760D01*
X338972Y284310D01*
X337604Y283579D01*
X336405Y282595D01*
X335421Y281396D01*
X334690Y280028D01*
X334240Y278544D01*
X334088Y277000D01*
X334240Y275456D01*
X334690Y273972D01*
X335421Y272604D01*
X336405Y271405D01*
X337604Y270421D01*
X338972Y269690D01*
X340456Y269240D01*
X342000Y269088D01*
X343544Y269240D01*
X345028Y269690D01*
X346396Y270421D01*
X347595Y271405D01*
X348579Y272604D01*
X349310Y273972D01*
X349760Y275456D01*
X349912Y277000D01*
X349760Y278544D01*
X349310Y280028D01*
X348579Y281396D01*
X347595Y282595D01*
X346396Y283579D01*
X345028Y284310D01*
X343544Y284760D01*
X342000Y284912D01*
D02*
G37*
G36*
X332000Y204912D02*
X330456Y204760D01*
X328972Y204310D01*
X327604Y203579D01*
X326405Y202595D01*
X325421Y201396D01*
X324690Y200028D01*
X324240Y198544D01*
X324088Y197000D01*
X324240Y195456D01*
X324690Y193972D01*
X325421Y192604D01*
X326405Y191405D01*
X327604Y190421D01*
X328972Y189690D01*
X330456Y189240D01*
X332000Y189088D01*
X333544Y189240D01*
X335028Y189690D01*
X336396Y190421D01*
X337595Y191405D01*
X338579Y192604D01*
X339310Y193972D01*
X339760Y195456D01*
X339912Y197000D01*
X339760Y198544D01*
X339310Y200028D01*
X338579Y201396D01*
X337595Y202595D01*
X336396Y203579D01*
X335028Y204310D01*
X333544Y204760D01*
X332000Y204912D01*
D02*
G37*
G36*
X302000D02*
X300456Y204760D01*
X298972Y204310D01*
X297604Y203579D01*
X296405Y202595D01*
X295421Y201396D01*
X294690Y200028D01*
X294240Y198544D01*
X294088Y197000D01*
X294240Y195456D01*
X294690Y193972D01*
X295421Y192604D01*
X296405Y191405D01*
X297604Y190421D01*
X298972Y189690D01*
X300456Y189240D01*
X302000Y189088D01*
X303544Y189240D01*
X305028Y189690D01*
X306396Y190421D01*
X307595Y191405D01*
X308579Y192604D01*
X309310Y193972D01*
X309760Y195456D01*
X309912Y197000D01*
X309760Y198544D01*
X309310Y200028D01*
X308579Y201396D01*
X307595Y202595D01*
X306396Y203579D01*
X305028Y204310D01*
X303544Y204760D01*
X302000Y204912D01*
D02*
G37*
G36*
X117000Y203423D02*
X115649Y203290D01*
X114351Y202896D01*
X113154Y202256D01*
X112105Y201395D01*
X111244Y200346D01*
X110604Y199149D01*
X110210Y197851D01*
X110077Y196500D01*
X110210Y195149D01*
X110604Y193851D01*
X111244Y192654D01*
X112105Y191605D01*
X113154Y190744D01*
X114351Y190104D01*
X115649Y189710D01*
X117000Y189577D01*
X118351Y189710D01*
X119610Y190092D01*
X119739Y190086D01*
X120110Y189864D01*
Y189610D01*
X121016D01*
Y184275D01*
X120118Y184186D01*
X118340Y183647D01*
X116700Y182770D01*
X115263Y181591D01*
X114084Y180154D01*
X113208Y178515D01*
X112668Y176736D01*
X112486Y174886D01*
X112668Y173036D01*
X113208Y171257D01*
X114084Y169617D01*
X115253Y168193D01*
X114084Y166768D01*
X113208Y165129D01*
X112668Y163350D01*
X112486Y161500D01*
X112668Y159650D01*
X113208Y157871D01*
X114084Y156232D01*
X115263Y154795D01*
X116700Y153615D01*
X118340Y152739D01*
X120118Y152199D01*
X121968Y152017D01*
X123819Y152199D01*
X125597Y152739D01*
X127237Y153615D01*
X128674Y154795D01*
X129853Y156232D01*
X130729Y157871D01*
X131269Y159650D01*
X131451Y161500D01*
X131269Y163350D01*
X130729Y165129D01*
X129853Y166768D01*
X128684Y168193D01*
X129853Y169617D01*
X130729Y171257D01*
X131269Y173036D01*
X131451Y174886D01*
X131270Y176725D01*
X131797Y177998D01*
X131984Y179417D01*
Y189610D01*
X133890D01*
Y203390D01*
X120110D01*
Y203136D01*
X119739Y202913D01*
X119610Y202908D01*
X118351Y203290D01*
X117000Y203423D01*
D02*
G37*
G36*
X343571Y124724D02*
X328122D01*
Y109276D01*
X343571D01*
Y124724D01*
D02*
G37*
G36*
X156500Y247224D02*
X154993Y247076D01*
X153544Y246636D01*
X152209Y245922D01*
X151038Y244962D01*
X150078Y243791D01*
X149364Y242456D01*
X148924Y241007D01*
X148776Y239500D01*
X148924Y237993D01*
X149065Y237527D01*
X148813Y237187D01*
X148813D01*
Y221813D01*
X164187D01*
Y237187D01*
X164187D01*
X163935Y237527D01*
X164076Y237993D01*
X164224Y239500D01*
X164076Y241007D01*
X163636Y242456D01*
X162922Y243791D01*
X161962Y244962D01*
X160791Y245922D01*
X159456Y246636D01*
X158007Y247076D01*
X156500Y247224D01*
D02*
G37*
%LPD*%
D11*
X95500Y323500D02*
Y344000D01*
X94750D02*
X95500D01*
X84750Y334000D02*
X94750Y344000D01*
X62500Y336500D02*
X70750D01*
X73250Y334000D01*
X84750D01*
X47886Y351114D02*
X62500Y336500D01*
X10614Y98500D02*
X18000D01*
Y136000D01*
X134500Y315000D02*
X148500Y301000D01*
X121000Y315000D02*
X134500D01*
X118000Y318000D02*
X121000Y315000D01*
X118000Y318000D02*
Y332339D01*
X96244Y370256D02*
X123000Y343500D01*
Y337339D02*
Y343500D01*
X118000Y332339D02*
X123000Y337339D01*
X382000Y302114D02*
X387886Y308000D01*
X382000Y277000D02*
Y302114D01*
X374500Y308000D02*
X387886D01*
X68032Y89500D02*
X68500Y89031D01*
Y54500D02*
Y89031D01*
X33193Y54661D02*
X68032Y89500D01*
X266000Y274532D02*
X279386D01*
X291315D02*
X352000Y213846D01*
X279386Y274532D02*
X291315D01*
X18130Y351114D02*
X47886D01*
X18130Y345114D02*
Y351114D01*
Y358500D01*
X143488Y383000D02*
X206500D01*
X210500Y387000D01*
X131677Y334421D02*
Y370000D01*
X143488Y381811D02*
Y383000D01*
X131677Y370000D02*
X143488Y381811D01*
X131677Y370000D02*
Y383000D01*
X119866Y381811D02*
X131677Y370000D01*
X119866Y381811D02*
Y383000D01*
X127000Y329744D02*
X131677Y334421D01*
X148500Y301000D02*
X161886D01*
X204031Y354031D02*
X235000Y385000D01*
X161886Y354031D02*
X204031D01*
X148500D02*
X161886D01*
X368000Y359000D02*
X381386D01*
X383417Y361032D01*
X387886D01*
X184500Y283000D02*
X213500Y312000D01*
X241000D01*
Y322500D02*
X241500Y323000D01*
X241000Y312000D02*
Y322500D01*
Y312000D02*
X323445D01*
X327500Y316055D01*
X322532Y374969D02*
X327000Y370500D01*
X241500Y374969D02*
X322532D01*
X235000D02*
X241500D01*
X351937Y144217D02*
Y158000D01*
X352000Y158063D02*
Y197000D01*
X351937Y158000D02*
X352000Y158063D01*
X351937Y144217D02*
X379153Y117000D01*
X352000Y197000D02*
Y213846D01*
X68032Y89500D02*
X81532Y103000D01*
X103000D01*
X295669Y77539D02*
X336539D01*
X84433Y382811D02*
Y383000D01*
Y382811D02*
X96244Y371000D01*
Y383000D01*
Y370256D02*
Y371000D01*
X108055Y382811D02*
Y383000D01*
X96244Y371000D02*
X108055Y382811D01*
X340000Y387000D02*
X368000Y359000D01*
X210500Y387000D02*
X340000D01*
X24000Y45469D02*
X33193Y54661D01*
Y15000D02*
Y54661D01*
X10614Y45469D02*
X24000D01*
X235000Y374969D02*
Y385000D01*
X336539Y77539D02*
X338500Y79500D01*
X330000Y88000D02*
X338500Y79500D01*
X330000Y88000D02*
Y91000D01*
X333500Y94500D01*
X338500D01*
Y64500D02*
X377500D01*
X385000Y72000D01*
X215500Y390000D02*
Y395998D01*
X218499D01*
X219499Y394998D01*
Y392999D01*
X218499Y391999D01*
X215500D01*
X222498Y390000D02*
X224497D01*
X225497Y391000D01*
Y392999D01*
X224497Y393999D01*
X222498D01*
X221498Y392999D01*
Y391000D01*
X222498Y390000D01*
X227496Y393999D02*
Y391000D01*
X228496Y390000D01*
X229496Y391000D01*
X230495Y390000D01*
X231495Y391000D01*
Y393999D01*
X236493Y390000D02*
X234494D01*
X233494Y391000D01*
Y392999D01*
X234494Y393999D01*
X236493D01*
X237493Y392999D01*
Y391999D01*
X233494D01*
X239492Y393999D02*
Y390000D01*
Y391999D01*
X240492Y392999D01*
X241492Y393999D01*
X242491D01*
X245490Y395998D02*
Y390000D01*
X248489D01*
X249489Y391000D01*
Y391999D01*
X248489Y392999D01*
X245490D01*
X248489D01*
X249489Y393999D01*
Y394998D01*
X248489Y395998D01*
X245490D01*
X252488Y390000D02*
X254487D01*
X255487Y391000D01*
Y392999D01*
X254487Y393999D01*
X252488D01*
X251488Y392999D01*
Y391000D01*
X252488Y390000D01*
X258486Y393999D02*
X260485D01*
X261485Y392999D01*
Y390000D01*
X258486D01*
X257486Y391000D01*
X258486Y391999D01*
X261485D01*
X263485Y393999D02*
Y390000D01*
Y391999D01*
X264484Y392999D01*
X265484Y393999D01*
X266483D01*
X273481Y395998D02*
Y390000D01*
X270482D01*
X269482Y391000D01*
Y392999D01*
X270482Y393999D01*
X273481D01*
X281479D02*
X283478Y390000D01*
X285477Y393999D01*
X291475Y390000D02*
X287477D01*
X291475Y393999D01*
Y394998D01*
X290476Y395998D01*
X288476D01*
X287477Y394998D01*
D36*
X140122Y209764D02*
Y255634D01*
X127000D02*
X140122D01*
X159366Y267634D02*
X184500Y242500D01*
X128000Y267634D02*
X159366D01*
X266000Y203500D02*
X275000Y194500D01*
X266000Y203500D02*
Y221500D01*
X279386D01*
X272000Y194500D02*
X275000D01*
X260000D02*
X272000D01*
X272500Y195000D01*
X184500Y193000D02*
Y242500D01*
X140122Y209764D02*
X175000Y174886D01*
X251327Y185827D02*
X260000Y194500D01*
X245173Y185827D02*
X251327D01*
X199500D02*
X245173D01*
X192327Y193000D02*
X199500Y185827D01*
X184500Y193000D02*
X192327D01*
X231347Y172000D02*
X245173Y185827D01*
X275000Y194500D02*
X298000Y171500D01*
X235500Y154500D02*
X253000Y172000D01*
X210000Y154500D02*
X235500D01*
X189614Y174886D02*
X210000Y154500D01*
X189614Y174886D02*
X206807D01*
X175000D02*
X189614D01*
X206807D02*
X209693Y172000D01*
X175000Y161500D02*
Y174886D01*
X121968Y161500D02*
Y174886D01*
X126500Y179417D01*
Y197500D01*
D37*
X109000Y281500D02*
Y294500D01*
X95500Y281500D02*
X109000D01*
X95500Y162000D02*
Y281500D01*
X64500Y194500D02*
Y224500D01*
X65500Y225500D01*
Y243500D01*
X109000Y294500D02*
X120622Y306122D01*
X127000D01*
X82122Y373500D02*
X109000Y346622D01*
Y294500D02*
Y346622D01*
X23937Y173500D02*
Y183937D01*
X64500Y224500D01*
X295669Y107500D02*
X315000D01*
X295669Y92500D02*
X316000D01*
X49000Y383000D02*
X58500Y373500D01*
X70311D01*
X72622Y383000D02*
X82122Y373500D01*
X60811Y383000D02*
X70311Y373500D01*
X82122D01*
X54500Y194500D02*
X64500D01*
Y174031D02*
Y194500D01*
X54500Y204346D02*
X59153Y209000D01*
X54500Y194500D02*
Y204346D01*
X64500Y174031D02*
X77886D01*
X64500Y121000D02*
X77886D01*
Y144386D01*
X95500Y162000D01*
Y145000D02*
Y162000D01*
Y145000D02*
X133500Y107000D01*
X298669D01*
X276346Y166839D02*
Y171500D01*
Y166839D02*
X295669Y147516D01*
X319654Y171500D01*
X295669Y107500D02*
Y147516D01*
X393000Y54000D02*
Y108500D01*
Y53500D02*
Y54000D01*
X344000Y41000D02*
X357000Y54000D01*
X393000D01*
X374000Y102000D02*
X385000D01*
X325500D02*
X374000D01*
X382500Y43000D02*
X393000Y53500D01*
X380500Y108500D02*
X393000D01*
X374000Y102000D02*
X380500Y108500D01*
X323000Y99500D02*
X325500Y102000D01*
X316000Y92500D02*
X323000Y99500D01*
X315000Y107500D02*
X323000Y99500D01*
D38*
X18130Y345114D02*
D03*
Y358500D02*
D03*
X71161D02*
D03*
Y345114D02*
D03*
X149614Y355909D02*
D03*
X163000D02*
D03*
Y302878D02*
D03*
X149614D02*
D03*
X10614Y98500D02*
D03*
X24000D02*
D03*
Y45469D02*
D03*
X10614D02*
D03*
X279386Y274532D02*
D03*
X266000D02*
D03*
Y221500D02*
D03*
X279386D02*
D03*
X77886Y174031D02*
D03*
X64500D02*
D03*
Y121000D02*
D03*
X77886D02*
D03*
X387886Y361032D02*
D03*
X374500D02*
D03*
Y308000D02*
D03*
X387886D02*
D03*
X175000Y161500D02*
D03*
Y174886D02*
D03*
X121968D02*
D03*
Y161500D02*
D03*
D39*
X224500Y193000D02*
D03*
X244500D02*
D03*
X184500D02*
D03*
Y283000D02*
D03*
X204500D02*
D03*
X224500D02*
D03*
X244500D02*
D03*
X173319Y203000D02*
D03*
X250878Y272764D02*
D03*
Y203000D02*
D03*
X172925Y272764D02*
D03*
D40*
X16063Y173500D02*
D03*
X344063Y158000D02*
D03*
D41*
X23937Y173500D02*
D03*
X351937Y158000D02*
D03*
X209693Y172000D02*
D03*
X231347D02*
D03*
X298000Y171500D02*
D03*
X276346D02*
D03*
D42*
X298669Y48000D02*
D03*
X298669Y108000D02*
D03*
D43*
X298669Y63000D02*
D03*
Y78039D02*
D03*
Y93000D02*
D03*
D44*
X103000Y53000D02*
D03*
Y78000D02*
D03*
Y103000D02*
D03*
D45*
X384500Y386500D02*
D03*
Y13000D02*
D03*
X15000Y385500D02*
D03*
X12500Y13000D02*
D03*
D46*
X37189Y390717D02*
D03*
X155299D02*
D03*
X382500Y43000D02*
D03*
X344000Y21000D02*
D03*
X347500Y316055D02*
D03*
X347000Y370500D02*
D03*
X48500Y54500D02*
D03*
X156500Y239500D02*
D03*
X116284Y338311D02*
D03*
Y220201D02*
D03*
D47*
X143488Y383000D02*
D03*
X131677D02*
D03*
X119866D02*
D03*
X108055D02*
D03*
X96244D02*
D03*
X84433D02*
D03*
X72622D02*
D03*
X60811D02*
D03*
X49000D02*
D03*
X124000Y232012D02*
D03*
Y243823D02*
D03*
Y255634D02*
D03*
Y267445D02*
D03*
Y279256D02*
D03*
Y291067D02*
D03*
Y302878D02*
D03*
Y314689D02*
D03*
Y326500D02*
D03*
D48*
X382500Y33000D02*
D03*
X344000Y41000D02*
D03*
X156500Y229500D02*
D03*
D49*
X76500Y15000D02*
D03*
X15846Y209000D02*
D03*
X335846Y117000D02*
D03*
D50*
X33193Y15000D02*
D03*
X59153Y209000D02*
D03*
X379153Y117000D02*
D03*
D51*
X241500Y323000D02*
D03*
D52*
Y374969D02*
D03*
D53*
X382000Y277000D02*
D03*
X342000D02*
D03*
X302000D02*
D03*
Y197000D02*
D03*
X332000D02*
D03*
X352000D02*
D03*
X65500Y243500D02*
D03*
X45500D02*
D03*
X15500D02*
D03*
Y323500D02*
D03*
X55500D02*
D03*
X95500D02*
D03*
D54*
X385000Y72000D02*
D03*
Y102000D02*
D03*
D55*
X338500Y79500D02*
D03*
Y64500D02*
D03*
Y94500D02*
D03*
D56*
X27500Y135000D02*
D03*
X117000Y196500D02*
D03*
D57*
X17500Y135000D02*
D03*
X127000Y196500D02*
D03*
D58*
X253000Y172000D02*
D03*
X319654Y171500D02*
D03*
D59*
X327500Y316055D02*
D03*
X327000Y370500D02*
D03*
X68500Y54500D02*
D03*
M02*
