M48
;Layer_Color=9474304
;FILE_FORMAT=2:5
INCH,LZ
;TYPE=PLATED
T1F00S00C0.03000
T3F00S00C0.03150
T4F00S00C0.03346
T5F00S00C0.03500
T6F00S00C0.03543
T7F00S00C0.03898
T8F00S00C0.03937
T9F00S00C0.04000
T10F00S00C0.04100
T11F00S00C0.04200
T12F00S00C0.04201
T13F00S00C0.04331
T14F00S00C0.04724
T15F00S00C0.05000
T16F00S00C0.05118
T17F00S00C0.05906
T18F00S00C0.06299
T19F00S00C0.06299
T20F00S00C0.06693
T21F00S00C0.07200
T22F00S00C0.11811
%
T01
X0253Y0172
X0276346Y01715
X0319654
X0351937Y0158
X0209693Y0172
X0023937Y01735
T03
X00485Y00545
X00685
X0344Y0041
Y0021
X03475Y0316055
X03275
X0327Y03705
X0347
T04
X0385Y0072
Y0102
T05
X03385Y00645
Y00795
Y00945
T06
X0117Y01965
X0127
X00275Y0135
X00175
T07
X0231347Y0172
X0298Y01715
T08
X01845Y0283
T09
X03825Y0033
Y0043
X01565Y02295
Y02395
X0124Y0243823
Y0255634
Y0267445
Y0279256
Y0291067
Y0302878
Y0314689
Y03265
X0119866Y0383
X0108055
X0096244
X0084433
X0072622
X0060811
X0131677
X0143488
T10
X0124Y0232012
X0049Y0383
T11
X02415Y0374969
T12
X02415Y0323
T13
X02245Y0193
X02445
X01845
X02045Y0283
X02245
X02445
T14
X0298669Y0063
Y0078039
Y0093
T15
X0116284Y0220201
Y0338311
X0155299Y0390717
X0037189
T16
X0033193Y0015
X00765
X0379153Y0117
X0335846
X0332Y0197
X0352
X0302
X0059153Y0209
X0015846
X00155Y02435
X00455
X00555Y03235
X00155
X00955
X00655Y02435
X0302Y0277
X0342
X0382
T17
X0103Y0053
Y0078
Y0103
T18
X0250878Y0203
T19
X0173319Y0203
X0172925Y0272764
X0250878
T20
X0298669Y0048
X0298669Y0108
T21
X0010614Y0045469
X0024
X00645Y0121
X0077886
Y0174031
X00645
X0121968Y0174886
Y01615
X0175
Y0174886
X0024Y00985
X0010614
X001813Y0345114
Y03585
X0071161
Y0345114
X0149614Y0355909
X0163
Y0302878
X0149614
X0266Y0274532
X0279386
Y02215
X0266
X03745Y0308
X0387886
Y0361032
X03745
T22
X00125Y0013
X03845
Y03865
X0015Y03855
M30
