G04*
G04 #@! TF.GenerationSoftware,Altium Limited,Altium Designer,18.1.6 (161)*
G04*
G04 Layer_Color=65535*
%FSLAX25Y25*%
%MOIN*%
G70*
G01*
G75*
%ADD10C,0.00500*%
%ADD11C,0.01000*%
%ADD12C,0.00394*%
%ADD13C,0.00787*%
D10*
X29842Y173500D02*
G03*
X29842Y173500I-9843J0D01*
G01*
X357842Y158000D02*
G03*
X357842Y158000I-9843J0D01*
G01*
D11*
X368606Y31157D02*
G03*
X368606Y31157I-24606J0D01*
G01*
X361000Y79300D02*
G03*
X361000Y79300I-6500J0D01*
G01*
X361949Y316055D02*
G03*
X361949Y316055I-24606J0D01*
G01*
X361449Y370500D02*
G03*
X361449Y370500I-24606J0D01*
G01*
X83264Y54500D02*
G03*
X83264Y54500I-24606J0D01*
G01*
X5138Y338421D02*
X83484D01*
Y365193D01*
X5138D02*
X83484D01*
X5138Y338421D02*
Y365193D01*
X142921Y290555D02*
Y368902D01*
Y290555D02*
X169693D01*
Y368902D01*
X142921D02*
X169693D01*
X88000Y150323D02*
X315992Y150323D01*
Y5441D02*
Y150323D01*
X88000Y5441D02*
X315992D01*
X88000D02*
Y150323D01*
X164354Y375126D02*
Y397173D01*
X28134D02*
X164354D01*
X28134Y375126D02*
Y397173D01*
Y375126D02*
X164354D01*
X376594Y27095D02*
Y48748D01*
X388405D01*
Y27095D02*
Y48748D01*
X376594Y27095D02*
X388405D01*
X24138Y4764D02*
X85555D01*
X23744D02*
Y24449D01*
X85555D01*
Y4764D02*
Y24449D01*
X3921Y33146D02*
Y111492D01*
Y33146D02*
X30693D01*
Y111492D01*
X3921D02*
X30693D01*
X177327Y316701D02*
Y381661D01*
X305673D01*
Y316701D02*
Y381661D01*
X177327Y316701D02*
X305673D01*
X334500Y60500D02*
X372000D01*
X334500D02*
Y98500D01*
X372000D01*
Y60500D02*
Y98500D01*
X200638Y161764D02*
X262055D01*
X200244D02*
Y181449D01*
X262055D01*
Y161764D02*
Y181449D01*
X259307Y208508D02*
X286079D01*
X259307D02*
Y286854D01*
X286079D01*
Y208508D02*
Y286854D01*
X57807Y108008D02*
X84579D01*
X57807D02*
Y186354D01*
X84579D01*
Y108008D02*
Y186354D01*
X367807Y295008D02*
X394579D01*
X367807D02*
Y373354D01*
X394579D01*
Y295008D02*
Y373354D01*
X108976Y154807D02*
Y181579D01*
X187323D01*
Y154807D02*
Y181579D01*
X108976Y154807D02*
X187323D01*
X150594Y223594D02*
Y245248D01*
X162406D01*
Y223594D02*
Y245248D01*
X150594Y223594D02*
X162406D01*
X131874Y211146D02*
Y347366D01*
X109827Y211146D02*
X131874D01*
X109827D02*
Y347366D01*
X131874D01*
X328709Y161264D02*
Y180949D01*
X266898D02*
X328709D01*
X266898Y161264D02*
Y180949D01*
X267291Y161264D02*
X328709D01*
X6791Y199551D02*
Y219236D01*
Y199551D02*
X68602D01*
Y219236D01*
X6791D02*
X68209D01*
X326791Y127236D02*
X388209D01*
X388602Y107551D02*
Y127236D01*
X326791Y107551D02*
X388602D01*
X326791D02*
Y127236D01*
X365500Y53468D02*
X368124D01*
X204000Y289500D02*
X205999D01*
X205000D01*
Y295498D01*
X204000Y294498D01*
X212997Y289500D02*
X208998D01*
X212997Y293499D01*
Y294498D01*
X211997Y295498D01*
X209998D01*
X208998Y294498D01*
X214996Y295498D02*
Y291499D01*
X216996Y289500D01*
X218995Y291499D01*
Y295498D01*
X224993D02*
X220994D01*
Y292499D01*
X222994Y293499D01*
X223993D01*
X224993Y292499D01*
Y290500D01*
X223993Y289500D01*
X221994D01*
X220994Y290500D01*
X205345Y158998D02*
Y153000D01*
X202346D01*
X201346Y154000D01*
Y155999D01*
X202346Y156999D01*
X205345D01*
X207345Y158998D02*
Y154999D01*
X209344Y153000D01*
X211343Y154999D01*
Y158998D01*
X213343Y153000D02*
X216342D01*
X217341Y154000D01*
X216342Y154999D01*
X214342D01*
X213343Y155999D01*
X214342Y156999D01*
X217341D01*
X13100Y143400D02*
Y149398D01*
X16099D01*
X17099Y148398D01*
Y146399D01*
X16099Y145399D01*
X13100D01*
X23097Y143400D02*
X19098D01*
X23097Y147399D01*
Y148398D01*
X22097Y149398D01*
X20098D01*
X19098Y148398D01*
X375000Y73000D02*
X380998D01*
Y70001D01*
X379998Y69001D01*
X377999D01*
X376999Y70001D01*
Y73000D01*
Y71001D02*
X375000Y69001D01*
Y64003D02*
X380998D01*
X377999Y67002D01*
Y63003D01*
X380000Y82500D02*
X374002D01*
Y85499D01*
X375002Y86499D01*
X377001D01*
X378001Y85499D01*
Y82500D01*
Y84499D02*
X380000Y86499D01*
X375002Y88498D02*
X374002Y89498D01*
Y91497D01*
X375002Y92497D01*
X376001D01*
X377001Y91497D01*
Y90497D01*
Y91497D01*
X378001Y92497D01*
X379000D01*
X380000Y91497D01*
Y89498D01*
X379000Y88498D01*
X292000Y289756D02*
X293999D01*
X293000D01*
Y295754D01*
X292000Y294754D01*
X300997Y289756D02*
X296998D01*
X300997Y293755D01*
Y294754D01*
X299997Y295754D01*
X297998D01*
X296998Y294754D01*
X302996Y295754D02*
Y291755D01*
X304996Y289756D01*
X306995Y291755D01*
Y295754D01*
X308995Y294754D02*
X309994Y295754D01*
X311994D01*
X312993Y294754D01*
Y293755D01*
X311994Y292755D01*
X310994D01*
X311994D01*
X312993Y291755D01*
Y290756D01*
X311994Y289756D01*
X309994D01*
X308995Y290756D01*
X314993Y295754D02*
X318991D01*
X316992D01*
Y289756D01*
X84433Y335000D02*
X86432D01*
X85433D01*
Y340998D01*
X84433Y339998D01*
X93430Y335000D02*
X89431D01*
X93430Y338999D01*
Y339998D01*
X92431Y340998D01*
X90431D01*
X89431Y339998D01*
X95429Y340998D02*
Y336999D01*
X97429Y335000D01*
X99428Y336999D01*
Y340998D01*
X101428Y339998D02*
X102427Y340998D01*
X104427D01*
X105426Y339998D01*
Y338999D01*
X104427Y337999D01*
X103427D01*
X104427D01*
X105426Y336999D01*
Y336000D01*
X104427Y335000D01*
X102427D01*
X101428Y336000D01*
X107426Y335000D02*
Y340998D01*
X109425Y338999D01*
X111424Y340998D01*
Y335000D01*
X108000Y210498D02*
Y206499D01*
X109999Y204500D01*
X111999Y206499D01*
Y210498D01*
X117997Y209498D02*
X116997Y210498D01*
X114998D01*
X113998Y209498D01*
Y208499D01*
X114998Y207499D01*
X116997D01*
X117997Y206499D01*
Y205500D01*
X116997Y204500D01*
X114998D01*
X113998Y205500D01*
X119996Y208499D02*
Y205500D01*
X120996Y204500D01*
X123995D01*
Y208499D01*
X125994Y202501D02*
Y208499D01*
X128993D01*
X129993Y207499D01*
Y205500D01*
X128993Y204500D01*
X125994D01*
X131992Y202501D02*
Y208499D01*
X134991D01*
X135991Y207499D01*
Y205500D01*
X134991Y204500D01*
X131992D01*
X180000Y390683D02*
Y384685D01*
X183999D01*
X189997D02*
X185998D01*
X189997Y388684D01*
Y389683D01*
X188997Y390683D01*
X186998D01*
X185998Y389683D01*
X24499Y118998D02*
X20500D01*
Y115999D01*
X22499D01*
X20500D01*
Y113000D01*
X26498Y118998D02*
X30497D01*
Y117998D01*
X26498Y114000D01*
Y113000D01*
X138499Y189998D02*
X134500D01*
Y186999D01*
X136499D01*
X134500D01*
Y184000D01*
X140498D02*
X142497D01*
X141498D01*
Y189998D01*
X140498Y188998D01*
X149495Y184000D02*
X145496D01*
X149495Y187999D01*
Y188998D01*
X148495Y189998D01*
X146496D01*
X145496Y188998D01*
X151495Y189998D02*
Y185999D01*
X153494Y184000D01*
X155493Y185999D01*
Y189998D01*
X161491Y188998D02*
X160492Y189998D01*
X158492D01*
X157493Y188998D01*
Y187999D01*
X158492Y186999D01*
X160492D01*
X161491Y185999D01*
Y185000D01*
X160492Y184000D01*
X158492D01*
X157493Y185000D01*
X360002Y333743D02*
Y329744D01*
X363001D01*
Y331743D01*
Y329744D01*
X366000D01*
X361002Y335742D02*
X360002Y336742D01*
Y338741D01*
X361002Y339741D01*
X362001D01*
X363001Y338741D01*
Y337741D01*
Y338741D01*
X364001Y339741D01*
X365000D01*
X366000Y338741D01*
Y336742D01*
X365000Y335742D01*
X360002Y341740D02*
X364001D01*
X366000Y343740D01*
X364001Y345739D01*
X360002D01*
X361002Y347738D02*
X360002Y348738D01*
Y350737D01*
X361002Y351737D01*
X362001D01*
X363001Y350737D01*
Y349738D01*
Y350737D01*
X364001Y351737D01*
X365000D01*
X366000Y350737D01*
Y348738D01*
X365000Y347738D01*
X360002Y353736D02*
Y357735D01*
Y355736D01*
X366000D01*
X9499Y373498D02*
X5500D01*
Y370499D01*
X7499D01*
X5500D01*
Y367500D01*
X11498Y372498D02*
X12498Y373498D01*
X14497D01*
X15497Y372498D01*
Y371499D01*
X14497Y370499D01*
X13497D01*
X14497D01*
X15497Y369499D01*
Y368500D01*
X14497Y367500D01*
X12498D01*
X11498Y368500D01*
X17496Y373498D02*
Y369499D01*
X19496Y367500D01*
X21495Y369499D01*
Y373498D01*
X23494Y372498D02*
X24494Y373498D01*
X26493D01*
X27493Y372498D01*
Y371499D01*
X26493Y370499D01*
X25493D01*
X26493D01*
X27493Y369499D01*
Y368500D01*
X26493Y367500D01*
X24494D01*
X23494Y368500D01*
X29492Y367500D02*
Y373498D01*
X31492Y371499D01*
X33491Y373498D01*
Y367500D01*
X178112Y311379D02*
Y315378D01*
X175113D01*
Y313379D01*
Y315378D01*
X172114D01*
X178112Y305381D02*
Y309380D01*
X175113D01*
X176113Y307381D01*
Y306381D01*
X175113Y305381D01*
X173114D01*
X172114Y306381D01*
Y308380D01*
X173114Y309380D01*
X178112Y303382D02*
X174114D01*
X172114Y301382D01*
X174114Y299383D01*
X178112D01*
Y297384D02*
Y293385D01*
Y295384D01*
X172114D01*
X75807Y32498D02*
Y26500D01*
X78806D01*
X79806Y27500D01*
Y31498D01*
X78806Y32498D01*
X75807D01*
X85804D02*
X81805D01*
Y29499D01*
X83805Y30499D01*
X84804D01*
X85804Y29499D01*
Y27500D01*
X84804Y26500D01*
X82805D01*
X81805Y27500D01*
X327300Y136698D02*
Y130700D01*
X330299D01*
X331299Y131700D01*
Y135698D01*
X330299Y136698D01*
X327300D01*
X336297Y130700D02*
Y136698D01*
X333298Y133699D01*
X337297D01*
X7300Y228698D02*
Y222700D01*
X10299D01*
X11299Y223700D01*
Y227698D01*
X10299Y228698D01*
X7300D01*
X13298Y227698D02*
X14298Y228698D01*
X16297D01*
X17297Y227698D01*
Y226699D01*
X16297Y225699D01*
X15297D01*
X16297D01*
X17297Y224699D01*
Y223700D01*
X16297Y222700D01*
X14298D01*
X13298Y223700D01*
X270896Y159498D02*
Y153500D01*
X267897D01*
X266898Y154500D01*
Y156499D01*
X267897Y157499D01*
X270896D01*
X272896Y159498D02*
Y155499D01*
X274895Y153500D01*
X276894Y155499D01*
Y159498D01*
X278894Y153500D02*
Y157499D01*
X279893D01*
X280893Y156499D01*
Y153500D01*
Y156499D01*
X281893Y157499D01*
X282892Y156499D01*
Y153500D01*
X322999Y59498D02*
X321999Y60498D01*
X320000D01*
X319000Y59498D01*
Y55500D01*
X320000Y54500D01*
X321999D01*
X322999Y55500D01*
X324998Y54500D02*
X326997D01*
X325998D01*
Y60498D01*
X324998Y59498D01*
X329996Y54500D02*
X331996D01*
X330996D01*
Y60498D01*
X329996Y59498D01*
X395998Y38501D02*
X396998Y39501D01*
Y41500D01*
X395998Y42500D01*
X392000D01*
X391000Y41500D01*
Y39501D01*
X392000Y38501D01*
X391000Y36502D02*
Y34503D01*
Y35502D01*
X396998D01*
X395998Y36502D01*
Y31504D02*
X396998Y30504D01*
Y28504D01*
X395998Y27505D01*
X392000D01*
X391000Y28504D01*
Y30504D01*
X392000Y31504D01*
X395998D01*
X39499Y81998D02*
X38499Y82998D01*
X36500D01*
X35500Y81998D01*
Y78000D01*
X36500Y77000D01*
X38499D01*
X39499Y78000D01*
X41498D02*
X42498Y77000D01*
X44497D01*
X45497Y78000D01*
Y81998D01*
X44497Y82998D01*
X42498D01*
X41498Y81998D01*
Y80999D01*
X42498Y79999D01*
X45497D01*
X342999Y174498D02*
X341999Y175498D01*
X340000D01*
X339000Y174498D01*
Y170500D01*
X340000Y169500D01*
X341999D01*
X342999Y170500D01*
X344998Y174498D02*
X345998Y175498D01*
X347997D01*
X348997Y174498D01*
Y173499D01*
X347997Y172499D01*
X348997Y171499D01*
Y170500D01*
X347997Y169500D01*
X345998D01*
X344998Y170500D01*
Y171499D01*
X345998Y172499D01*
X344998Y173499D01*
Y174498D01*
X345998Y172499D02*
X347997D01*
X155999Y252998D02*
X154999Y253998D01*
X153000D01*
X152000Y252998D01*
Y249000D01*
X153000Y248000D01*
X154999D01*
X155999Y249000D01*
X157998Y253998D02*
X161997D01*
Y252998D01*
X157998Y249000D01*
Y248000D01*
X312999Y395998D02*
X311999Y396998D01*
X310000D01*
X309000Y395998D01*
Y392000D01*
X310000Y391000D01*
X311999D01*
X312999Y392000D01*
X318997Y396998D02*
X316997Y395998D01*
X314998Y393999D01*
Y392000D01*
X315998Y391000D01*
X317997D01*
X318997Y392000D01*
Y392999D01*
X317997Y393999D01*
X314998D01*
X315499Y342498D02*
X314499Y343498D01*
X312500D01*
X311500Y342498D01*
Y338500D01*
X312500Y337500D01*
X314499D01*
X315499Y338500D01*
X321497Y343498D02*
X317498D01*
Y340499D01*
X319497Y341499D01*
X320497D01*
X321497Y340499D01*
Y338500D01*
X320497Y337500D01*
X318498D01*
X317498Y338500D01*
X6999Y188498D02*
X5999Y189498D01*
X4000D01*
X3000Y188498D01*
Y184500D01*
X4000Y183500D01*
X5999D01*
X6999Y184500D01*
X11997Y183500D02*
Y189498D01*
X8998Y186499D01*
X12997D01*
X316500Y121000D02*
Y119001D01*
Y120000D01*
X322498D01*
X321498Y121000D01*
Y116002D02*
X322498Y115002D01*
Y113003D01*
X321498Y112003D01*
X317500D01*
X316500Y113003D01*
Y115002D01*
X317500Y116002D01*
X321498D01*
Y110004D02*
X322498Y109004D01*
Y107004D01*
X321498Y106005D01*
X317500D01*
X316500Y107004D01*
Y109004D01*
X317500Y110004D01*
X321498D01*
X322498Y104006D02*
X318499D01*
X316500Y102006D01*
X318499Y100007D01*
X322498D01*
X316500Y98007D02*
Y96008D01*
Y97008D01*
X322498D01*
X321498Y98007D01*
X316500Y89010D02*
Y93009D01*
X320499Y89010D01*
X321498D01*
X322498Y90010D01*
Y92009D01*
X321498Y93009D01*
X316500Y87011D02*
X322498D01*
X320499Y85012D01*
X322498Y83012D01*
X316500D01*
X59499Y193498D02*
X55500D01*
Y190499D01*
X57499D01*
X55500D01*
Y187500D01*
X61498D02*
X63497D01*
X62498D01*
Y193498D01*
X61498Y192498D01*
X70495Y187500D02*
X66496D01*
X70495Y191499D01*
Y192498D01*
X69495Y193498D01*
X67496D01*
X66496Y192498D01*
X72495Y193498D02*
Y189499D01*
X74494Y187500D01*
X76493Y189499D01*
Y193498D01*
X78493Y187500D02*
Y193498D01*
X80492Y191499D01*
X82491Y193498D01*
Y187500D01*
X263785Y296398D02*
X259786D01*
Y293399D01*
X261785D01*
X259786D01*
Y290400D01*
X265784D02*
X267783D01*
X266784D01*
Y296398D01*
X265784Y295398D01*
X274781Y290400D02*
X270782D01*
X274781Y294399D01*
Y295398D01*
X273781Y296398D01*
X271782D01*
X270782Y295398D01*
X276780Y296398D02*
Y292399D01*
X278780Y290400D01*
X280779Y292399D01*
Y296398D01*
X282778D02*
X286777D01*
X284778D01*
Y290400D01*
X167557Y385000D02*
X171555Y388999D01*
Y385000D02*
X167557Y388999D01*
X169556Y385000D02*
Y388999D01*
X171555Y386999D02*
X167557D01*
X172555Y394997D02*
Y390998D01*
X168556Y394997D01*
X167557D01*
X166557Y393997D01*
Y391998D01*
X167557Y390998D01*
X113500Y355254D02*
X117499Y351256D01*
X113500D02*
X117499Y355254D01*
X113500Y353255D02*
X117499D01*
X115499Y351256D02*
Y355254D01*
X119498Y350256D02*
X121497D01*
X120498D01*
Y356254D01*
X119498Y355254D01*
D12*
X292000Y187000D02*
X392000D01*
X292000D02*
Y287000D01*
X392000D01*
Y187000D02*
Y287000D01*
X105500Y233500D02*
Y333500D01*
X5500D02*
X105500D01*
X5500Y233500D02*
Y333500D01*
Y233500D02*
X105500D01*
D13*
X385000Y77000D02*
X388000D01*
Y97000D01*
X382000D02*
X388000D01*
X382000Y77000D02*
Y97000D01*
Y77000D02*
X385000D01*
Y97000D02*
Y97900D01*
Y76100D02*
Y77000D01*
X12500Y140000D02*
X32500D01*
X12500Y130000D02*
Y140000D01*
Y130000D02*
X32500D01*
Y140000D01*
X112000Y191500D02*
Y201500D01*
X132000D01*
Y191500D02*
Y201500D01*
X112000Y191500D02*
X132000D01*
X324000Y325920D02*
X330560D01*
X327280Y329199D02*
Y322640D01*
X343679Y325920D02*
X350238D01*
X334000Y23404D02*
Y17500D01*
X330500Y41420D02*
X337060D01*
X333780Y44699D02*
Y38140D01*
X323500Y379920D02*
X330060D01*
X326780Y383199D02*
Y376640D01*
X343179Y379920D02*
X349738D01*
X45500Y45420D02*
X52060D01*
X65179D02*
X71738D01*
X68458Y48700D02*
Y42140D01*
X343000Y151968D02*
X345624D01*
X350871D02*
X353495D01*
X352183Y153280D02*
Y150656D01*
X15000Y167968D02*
X17624D01*
X22872D02*
X25495D01*
X24183Y169280D02*
Y166656D01*
M02*
